<?xml version="1.0" standalone="no"?>
<!DOCTYPE svg PUBLIC "-//W3C//DTD SVG 20010904//EN"
 "http://www.w3.org/TR/2001/REC-SVG-20010904/DTD/svg10.dtd">
<svg version="1.0" xmlns="http://www.w3.org/2000/svg"
 width="1262.000000pt" height="1280.000000pt" viewBox="0 0 1262.000000 1280.000000"
 preserveAspectRatio="xMidYMid meet">

<g transform="translate(0.000000,1280.000000) scale(0.100000,-0.100000)"
fill="#ffffff" stroke="none">
<path d="M5377 12602 c-34 -37 -13 -69 58 -92 63 -20 163 -77 243 -138 239
-181 427 -545 458 -888 6 -64 11 -78 30 -91 29 -18 62 -9 74 21 10 28 -13 191
-45 313 -33 124 -66 210 -124 319 -68 129 -113 194 -199 285 -117 124 -220
198 -363 259 -82 35 -109 37 -132 12z"/>
<path d="M4863 12569 c-16 -17 -17 -61 -1 -77 7 -7 39 -12 73 -12 285 0 544
-229 666 -587 31 -91 69 -266 69 -318 0 -61 58 -99 90 -60 17 21 8 153 -18
261 -98 406 -314 682 -607 774 -87 27 -254 39 -272 19z"/>
<path d="M4396 12555 c-20 -20 -18 -65 4 -75 8 -4 63 -15 121 -24 158 -25 275
-74 404 -171 216 -163 378 -431 431 -712 9 -49 21 -94 27 -101 5 -7 24 -12 41
-10 46 5 54 38 31 140 -53 237 -158 453 -288 593 -26 28 -47 53 -47 56 0 8
-140 124 -187 156 -159 108 -486 198 -537 148z"/>
<path d="M5986 12487 c-12 -9 -17 -23 -14 -42 2 -24 16 -36 91 -79 198 -115
334 -291 408 -530 48 -158 50 -405 4 -563 -5 -14 0 -28 14 -42 46 -46 77 -17
103 96 27 115 28 304 4 423 -67 326 -237 571 -499 715 -70 38 -85 41 -111 22z"/>
<path d="M4120 12370 c-26 -26 -25 -42 3 -68 19 -18 35 -22 91 -22 147 0 332
-71 475 -183 117 -91 207 -199 268 -322 49 -98 57 -120 79 -213 19 -82 42
-105 83 -83 46 25 14 183 -71 346 -50 95 -118 186 -204 271 -159 157 -349 252
-567 283 -109 15 -134 14 -157 -9z"/>
<path d="M6520 12221 c-19 -36 -10 -50 66 -107 147 -111 234 -254 275 -452 31
-153 21 -350 -25 -487 -9 -25 -16 -54 -16 -65 0 -25 25 -49 47 -45 10 2 21 4
25 4 16 2 46 81 67 174 26 121 29 320 5 435 -35 171 -122 338 -231 443 -115
112 -188 146 -213 100z"/>
<path d="M4012 12144 c-12 -8 -22 -25 -22 -38 0 -41 27 -53 130 -58 72 -3 110
-11 158 -30 196 -81 348 -235 448 -456 59 -130 57 -127 92 -130 26 -3 34 1 43
21 9 21 7 37 -15 94 -98 257 -302 477 -526 566 -49 19 -194 47 -250 47 -20 0
-46 -7 -58 -16z"/>
<path d="M3552 12088 c-18 -18 -15 -66 6 -76 9 -5 57 -15 107 -22 377 -53 707
-286 844 -596 12 -26 21 -52 21 -59 0 -21 40 -65 59 -65 10 0 26 9 36 20 17
19 18 26 7 66 -7 25 -31 83 -53 127 -149 299 -456 519 -832 598 -103 22 -178
24 -195 7z"/>
<path d="M6932 11978 c-27 -27 -12 -57 61 -130 131 -129 188 -285 189 -512 0
-158 -24 -270 -83 -393 -21 -45 -39 -91 -39 -101 0 -27 24 -44 56 -40 72 8
173 318 174 533 0 129 -41 308 -95 415 -35 70 -109 163 -161 203 -49 38 -81
46 -102 25z"/>
<path d="M3132 11884 c-25 -17 -28 -42 -8 -70 13 -17 25 -19 108 -16 449 15
867 -170 1059 -468 73 -113 79 -120 98 -120 21 0 51 30 51 52 0 46 -93 183
-191 280 -232 229 -580 358 -969 358 -97 0 -131 -3 -148 -16z"/>
<path d="M7300 11753 c-26 -18 -25 -44 9 -193 33 -144 38 -339 13 -460 -25
-124 -63 -217 -124 -310 -56 -85 -60 -119 -16 -134 22 -8 32 -6 49 10 35 31
103 143 136 224 57 140 68 207 68 405 0 182 -8 243 -51 396 -19 67 -47 88 -84
62z"/>
<path d="M2905 11635 c-5 -2 -56 -9 -113 -15 -91 -11 -105 -15 -119 -36 -14
-22 -14 -26 2 -50 15 -24 21 -26 64 -21 374 47 691 24 933 -67 164 -62 327
-178 413 -296 49 -66 90 -76 116 -28 14 27 -22 86 -104 170 -231 236 -558 348
-1007 347 -96 0 -179 -2 -185 -4z"/>
<path d="M7591 11581 c-10 -7 -14 -48 -15 -182 -2 -143 -6 -189 -24 -259 -62
-238 -140 -405 -269 -576 -39 -52 -26 -94 28 -94 22 0 37 12 72 58 55 72 105
156 149 252 31 66 45 100 79 187 21 54 59 237 68 329 11 108 1 255 -20 280
-13 16 -47 18 -68 5z"/>
<path d="M2905 11425 c-107 -13 -222 -42 -274 -69 -27 -15 -32 -22 -29 -48 4
-44 27 -55 80 -39 165 49 187 53 324 58 109 4 161 1 230 -12 254 -50 471 -159
642 -324 66 -64 88 -73 115 -43 31 34 20 57 -58 130 -212 198 -495 323 -796
351 -63 6 -119 10 -125 10 -5 -1 -54 -7 -109 -14z"/>
<path d="M7830 11131 c-35 -40 -107 -129 -132 -162 -68 -92 -188 -308 -222
-399 -93 -247 -99 -273 -74 -298 17 -17 52 -15 71 6 8 9 20 36 26 59 20 74
100 264 152 362 63 116 129 213 213 315 36 43 66 84 66 91 0 20 -35 45 -61 44
-13 0 -31 -8 -39 -18z"/>
<path d="M2860 11125 c-94 -17 -248 -68 -320 -107 -67 -37 -173 -112 -200
-141 -29 -30 -26 -75 4 -89 30 -13 34 -11 118 54 99 79 205 130 350 169 118
31 354 32 478 1 163 -41 261 -88 389 -187 39 -30 77 -55 85 -55 19 0 46 33 46
56 0 25 -45 68 -134 128 -93 63 -150 91 -259 127 -170 57 -385 73 -557 44z"/>
<path d="M2750 10824 c-153 -30 -271 -88 -371 -181 -50 -47 -63 -85 -37 -111
25 -25 60 -12 123 46 98 90 205 133 362 148 165 15 415 -47 648 -163 65 -32
78 -35 100 -25 22 10 26 18 23 45 -3 30 -10 36 -106 84 -196 100 -393 153
-587 158 -71 2 -141 1 -155 -1z"/>
<path d="M8115 10769 c-202 -88 -388 -273 -569 -566 -40 -65 -31 -113 19 -113
27 0 47 23 115 130 30 47 57 87 60 90 3 3 22 28 42 55 48 66 179 193 248 241
30 21 88 53 129 70 94 41 108 55 95 91 -13 39 -53 40 -139 2z"/>
<path d="M2695 10535 c-111 -15 -188 -37 -283 -81 -91 -41 -208 -118 -229
-150 -14 -22 -14 -26 1 -49 23 -35 51 -31 113 16 153 115 329 169 551 169 192
-1 337 -37 490 -123 46 -25 57 -28 78 -18 21 9 25 17 22 47 -3 34 -8 38 -78
75 -111 59 -239 98 -370 115 -132 16 -172 16 -295 -1z"/>
<path d="M8225 10433 c-44 -5 -141 -32 -212 -60 -119 -45 -228 -111 -330 -201
-65 -56 -80 -91 -51 -120 24 -24 57 -12 125 48 113 98 261 177 408 217 33 9
112 19 175 22 111 6 115 7 129 33 14 24 14 28 -3 47 -17 19 -30 21 -115 20
-53 -1 -109 -4 -126 -6z"/>
<path d="M2520 10281 c-36 -10 -99 -33 -140 -51 -115 -51 -369 -221 -391 -262
-14 -25 13 -68 42 -68 11 0 64 31 117 68 152 106 201 136 292 174 113 48 189
62 302 55 148 -9 261 -46 419 -137 79 -46 94 -51 115 -41 33 15 36 65 6 88
-88 65 -261 142 -387 173 -107 26 -281 26 -375 1z"/>
<path d="M8280 10246 c-165 -46 -353 -144 -456 -239 -57 -52 -65 -74 -36 -100
27 -24 54 -21 88 11 16 16 49 42 74 59 235 160 482 227 649 177 48 -14 55 -14
77 1 39 25 29 65 -21 90 -64 32 -262 32 -375 1z"/>
<path d="M2620 9981 c-102 -22 -143 -37 -235 -85 -91 -47 -96 -50 -190 -122
-122 -94 -205 -173 -205 -195 0 -34 19 -59 46 -59 17 0 47 21 97 68 114 107
243 199 334 237 129 55 154 60 293 60 151 0 215 -15 343 -80 38 -19 77 -35 86
-35 24 0 54 34 49 56 -4 25 -70 68 -158 103 -165 65 -319 83 -460 52z"/>
<path d="M8340 9974 c-116 -11 -365 -72 -386 -95 -23 -25 -11 -67 20 -75 14
-3 71 5 128 19 173 42 312 60 413 53 147 -10 217 -35 317 -112 76 -59 118 -57
118 7 0 51 -125 139 -255 180 -61 19 -257 32 -355 23z"/>
<path d="M8481 9764 c-165 -44 -261 -92 -356 -177 -116 -103 -180 -333 -99
-353 35 -9 64 20 64 65 1 46 40 141 76 184 66 78 193 145 343 182 55 13 74 23
80 39 10 25 4 46 -17 64 -19 15 -23 15 -91 -4z"/>
<path d="M2558 9715 c-152 -27 -316 -98 -451 -194 -77 -55 -187 -160 -187
-178 0 -20 33 -53 52 -53 11 0 52 28 92 63 99 88 160 129 268 181 140 67 236
89 393 89 142 0 199 -12 316 -65 54 -25 70 -28 87 -19 47 25 35 76 -27 106
-156 75 -365 102 -543 70z"/>
<path d="M8685 9646 c-134 -34 -252 -132 -318 -266 -52 -106 -50 -150 9 -150
32 0 35 4 75 86 70 142 173 225 302 240 45 5 57 11 66 31 7 16 8 30 1 42 -18
34 -51 38 -135 17z"/>
<path d="M8972 9601 c-123 -45 -241 -142 -304 -249 -33 -55 -35 -83 -10 -105
36 -33 57 -21 105 65 45 79 153 161 261 198 60 21 83 53 62 85 -18 27 -51 29
-114 6z"/>
<path d="M9105 9426 c-88 -17 -148 -44 -203 -91 -75 -65 -109 -170 -62 -195
32 -17 58 -3 79 46 41 92 118 134 261 141 69 4 112 1 158 -11 76 -19 102 -11
102 34 0 40 -19 55 -87 68 -101 19 -176 22 -248 8z"/>
<path d="M2654 9416 c-124 -29 -259 -91 -390 -182 -148 -103 -414 -404 -414
-470 0 -28 19 -44 51 -44 22 0 35 12 70 63 169 249 414 444 654 519 33 10 101
22 151 25 76 5 103 2 162 -16 94 -28 119 -27 134 5 17 36 2 55 -68 83 -74 30
-254 39 -350 17z"/>
<path d="M5230 9331 c-8 -5 -58 -11 -110 -15 -52 -4 -96 -11 -98 -16 -2 -6
-19 -10 -38 -10 -19 0 -34 -4 -34 -10 0 -5 -18 -10 -39 -10 -22 0 -43 -4 -46
-10 -3 -5 -17 -10 -31 -10 -15 0 -24 -6 -24 -15 0 -10 -10 -15 -28 -15 -30 0
-82 -20 -82 -32 0 -5 -11 -8 -25 -8 -14 0 -25 -4 -25 -10 0 -5 -9 -10 -20 -10
-11 0 -20 -4 -20 -10 0 -5 -11 -12 -25 -16 -14 -3 -25 -10 -25 -15 0 -5 -7 -9
-15 -9 -8 0 -15 -3 -15 -8 0 -4 -12 -13 -27 -19 -16 -7 -40 -24 -55 -38 -15
-14 -30 -25 -33 -25 -8 0 -31 -19 -57 -47 -12 -13 -25 -23 -30 -23 -12 0 -108
-98 -108 -110 0 -6 -4 -10 -10 -10 -5 0 -10 -5 -10 -10 0 -6 -11 -21 -25 -34
-14 -13 -25 -33 -25 -45 0 -11 -4 -21 -10 -21 -5 0 -10 -9 -10 -20 0 -11 -4
-20 -10 -20 -5 0 -12 -16 -16 -35 -3 -19 -10 -35 -15 -35 -5 0 -9 -24 -9 -53
0 -29 -5 -58 -10 -63 -19 -19 0 -434 20 -434 4 0 10 -21 13 -47 3 -26 10 -49
16 -51 6 -2 11 -17 11 -33 0 -16 5 -29 10 -29 6 0 10 -9 10 -21 0 -11 6 -27
13 -34 29 -33 37 -45 37 -55 0 -5 5 -10 10 -10 6 0 10 -7 10 -15 0 -8 5 -15
10 -15 6 0 10 -4 10 -10 0 -13 77 -90 90 -90 6 0 21 -11 34 -25 13 -14 31 -25
40 -25 9 0 16 -4 16 -10 0 -5 7 -10 15 -10 8 0 15 -4 15 -9 0 -5 20 -12 45
-15 25 -4 45 -11 45 -17 0 -5 20 -9 44 -9 25 0 48 -4 51 -10 3 -5 24 -10 46
-10 21 0 39 5 39 10 0 6 20 10 45 10 25 0 45 -4 45 -10 0 -5 -4 -10 -10 -10
-5 0 -10 -13 -10 -29 0 -16 -6 -31 -14 -34 -21 -8 -30 -80 -30 -247 0 -150 11
-231 33 -238 6 -2 11 -17 11 -33 0 -16 5 -29 10 -29 6 0 10 -7 10 -15 0 -8 5
-15 10 -15 6 0 10 -7 10 -15 0 -8 8 -23 18 -34 96 -103 127 -131 142 -131 5 0
10 -4 10 -10 0 -5 7 -10 16 -10 8 0 22 -7 30 -15 9 -8 26 -15 40 -15 13 0 24
-4 24 -10 0 -5 18 -10 40 -10 22 0 40 -4 40 -10 0 -6 47 -10 120 -10 73 0 120
4 120 10 0 6 16 10 35 10 19 0 35 5 35 10 0 6 16 10 35 10 24 0 35 5 35 15 0
8 9 15 20 15 11 0 20 5 20 10 0 6 11 10 25 10 14 0 25 5 25 10 0 6 6 10 14 10
7 0 25 11 40 25 15 14 34 25 42 25 7 0 14 5 14 10 0 6 5 10 10 10 6 0 37 27
70 60 48 47 60 65 60 90 0 17 -6 38 -14 46 -22 21 -73 17 -101 -8 -62 -57 -75
-68 -80 -68 -3 0 -18 -11 -33 -25 -15 -14 -31 -25 -37 -25 -6 0 -17 -9 -25
-20 -8 -11 -22 -20 -30 -20 -25 0 -70 -24 -70 -37 0 -9 -17 -13 -51 -13 -31 0
-48 -4 -44 -10 4 -6 -38 -10 -119 -10 -77 0 -126 4 -126 10 0 6 -15 10 -33 10
-21 0 -42 9 -59 25 -15 14 -35 25 -45 25 -10 0 -29 14 -43 32 -14 17 -31 37
-37 44 -7 7 -13 17 -13 23 0 6 -4 11 -10 11 -5 0 -10 7 -10 15 0 8 -4 24 -10
35 -5 11 -14 29 -20 39 -5 11 -14 48 -20 83 -21 135 -8 255 41 350 21 41 2
118 -30 118 -6 0 -11 5 -11 10 0 6 5 10 11 10 35 0 53 77 25 106 -19 18 -85
18 -110 -1 -11 -8 -32 -15 -48 -15 -15 0 -28 -4 -28 -10 0 -12 -97 -13 -104
-1 -3 4 -28 11 -56 15 -27 4 -50 11 -50 16 0 6 -9 10 -20 10 -11 0 -20 5 -20
10 0 6 -11 10 -25 10 -15 0 -25 6 -25 14 0 7 -10 20 -22 29 -36 23 -68 54 -68
63 0 5 -10 21 -22 35 -32 35 -48 65 -48 89 0 11 -4 20 -10 20 -5 0 -10 8 -10
19 0 10 -7 32 -15 47 -8 16 -15 41 -15 57 0 15 -4 27 -10 27 -6 0 -10 75 -10
204 0 161 3 210 15 232 8 16 15 37 15 47 0 9 5 17 10 17 6 0 10 11 10 25 0 14
5 25 10 25 6 0 10 7 10 15 0 8 5 15 10 15 6 0 10 7 10 15 0 21 177 190 214
204 5 2 22 15 35 28 14 12 31 23 38 23 7 0 13 3 13 8 0 4 17 15 38 24 20 9 47
26 59 37 12 12 34 21 48 21 14 0 25 3 25 8 0 4 15 13 33 20 17 7 45 19 60 27
16 8 40 15 53 15 13 0 24 4 24 9 0 5 17 11 38 14 77 12 108 19 131 30 35 17
445 17 463 0 6 -7 27 -13 45 -13 18 0 33 -4 33 -10 0 -5 18 -10 40 -10 22 0
40 -4 40 -10 0 -5 9 -10 21 -10 11 0 27 -7 35 -15 9 -8 26 -15 40 -15 13 0 24
-4 24 -10 0 -5 9 -10 20 -10 11 0 20 -4 20 -10 0 -5 11 -10 25 -10 14 0 25 -5
25 -12 0 -6 3 -9 6 -5 3 3 15 -3 27 -14 11 -10 28 -19 37 -19 21 0 70 -23 70
-32 0 -5 7 -8 15 -8 9 0 28 -11 43 -25 15 -14 37 -25 49 -25 13 0 23 -4 23
-10 0 -5 7 -10 15 -10 8 0 15 -4 15 -8 0 -5 18 -17 40 -28 22 -10 40 -22 40
-26 0 -5 9 -8 20 -8 12 0 31 -9 43 -20 12 -12 33 -24 47 -27 14 -3 37 -14 52
-24 14 -11 31 -19 36 -19 6 0 26 -8 44 -19 18 -10 58 -27 88 -37 30 -11 57
-22 58 -26 2 -5 18 -8 36 -8 18 0 38 -6 45 -12 8 -9 45 -13 111 -13 66 0 103
4 112 13 6 6 20 12 30 12 10 0 18 5 18 10 0 6 8 10 19 10 23 0 67 43 75 75 3
13 2 35 -4 49 -8 22 -16 26 -49 26 -22 0 -46 -7 -55 -15 -8 -8 -19 -15 -25
-15 -6 0 -11 -4 -11 -10 0 -5 -12 -10 -27 -10 -15 0 -42 -5 -60 -12 -27 -10
-38 -10 -53 0 -11 7 -40 12 -65 12 -25 0 -45 5 -45 10 0 6 -11 10 -24 10 -13
0 -26 5 -28 10 -2 6 -14 12 -27 15 -14 2 -29 9 -35 15 -5 5 -18 10 -28 10 -10
0 -18 5 -18 10 0 6 -11 10 -25 10 -14 0 -25 5 -25 10 0 6 -5 10 -10 10 -6 0
-28 11 -50 25 -22 14 -46 25 -55 25 -8 0 -15 5 -15 10 0 6 -7 10 -15 10 -8 0
-24 9 -35 20 -11 11 -34 23 -50 27 -17 3 -30 9 -30 14 0 5 -7 9 -15 9 -8 0
-15 5 -15 10 0 6 -9 10 -20 10 -11 0 -20 5 -20 10 0 6 -6 10 -14 10 -8 0 -21
6 -28 13 -7 7 -28 20 -45 28 -18 7 -33 17 -33 20 0 4 -12 9 -27 12 -16 3 -38
15 -50 26 -12 12 -36 21 -53 21 -16 0 -30 4 -30 8 0 11 -46 32 -70 32 -11 0
-20 4 -20 9 0 13 -81 41 -118 41 -18 0 -32 5 -32 10 0 6 -13 10 -29 10 -16 0
-31 5 -33 10 -6 19 -371 47 -398 31z"/>
<path d="M9124 9260 c-108 -35 -157 -85 -124 -126 17 -20 54 -17 103 8 51 26
180 36 245 18 62 -16 132 -87 132 -134 0 -42 22 -66 61 -66 94 0 32 196 -84
263 -97 57 -224 71 -333 37z"/>
<path d="M2614 9121 c-282 -45 -585 -280 -737 -569 -44 -82 -44 -117 -2 -128
39 -10 52 1 89 73 124 247 363 443 624 513 70 19 98 21 190 17 59 -3 121 -9
139 -12 26 -6 34 -3 48 18 20 32 7 63 -33 78 -35 14 -252 20 -318 10z"/>
<path d="M9047 9063 c-50 -15 -69 -39 -59 -75 7 -26 43 -32 118 -18 196 37
364 -66 364 -222 l0 -40 -35 31 c-81 71 -199 111 -325 111 -71 0 -90 -3 -103
-18 -23 -26 -21 -58 5 -76 22 -16 22 -16 -17 -17 -119 -4 -146 -6 -212 -13
-40 -5 -73 -13 -73 -17 0 -5 -16 -9 -35 -9 -19 0 -35 -4 -35 -9 0 -5 -26 -12
-57 -15 -32 -3 -80 -8 -106 -12 -58 -7 -87 12 -87 60 -1 36 -14 55 -54 76 -23
12 -30 12 -33 3 -3 -7 -9 -13 -15 -13 -25 0 -38 -31 -38 -94 0 -37 4 -66 10
-66 6 0 10 -6 10 -13 0 -19 43 -57 63 -57 9 0 17 -4 17 -10 0 -5 16 -10 35
-10 19 0 44 -6 55 -12 16 -10 24 -10 40 0 11 6 40 12 64 12 25 0 48 5 51 10 3
6 28 10 55 10 27 0 52 5 55 10 3 6 22 10 41 10 19 0 34 5 34 10 0 6 45 10 115
10 63 0 124 -4 135 -10 11 -5 29 -14 40 -20 11 -5 30 -10 42 -10 13 0 32 -11
42 -25 10 -14 26 -25 35 -25 41 0 136 -194 166 -338 39 -189 -8 -438 -102
-542 -13 -14 -23 -29 -23 -33 0 -12 -27 -37 -39 -37 -6 0 -11 -3 -11 -7 0 -13
-44 -59 -62 -66 -12 -4 -18 -1 -18 8 0 8 3 15 8 15 12 0 60 93 64 125 1 17 7
33 11 36 12 9 10 210 -3 223 -5 5 -10 18 -10 28 0 16 -46 107 -59 118 -4 3
-18 21 -31 40 -13 19 -35 45 -48 58 -14 12 -22 25 -17 30 4 4 10 1 12 -5 3 -7
16 -13 29 -13 14 0 27 -7 30 -15 4 -8 12 -15 20 -15 8 0 14 -4 14 -10 0 -5 13
-10 29 -10 41 0 75 43 67 85 -4 16 -10 31 -15 33 -5 2 -22 14 -38 28 -15 13
-35 24 -44 24 -9 0 -19 3 -23 7 -3 4 -23 13 -44 20 -45 16 -342 18 -342 3 0
-5 -16 -10 -35 -10 -19 0 -35 -4 -35 -10 0 -5 -13 -10 -30 -10 -29 0 -102 -28
-108 -42 -2 -5 -17 -8 -33 -8 -16 0 -29 -4 -29 -10 0 -5 -11 -10 -25 -10 -14
0 -25 -4 -25 -8 0 -5 -33 -16 -72 -26 -40 -11 -77 -23 -82 -27 -14 -12 -136
-11 -136 1 0 6 -9 10 -19 10 -33 0 -34 19 -5 78 15 31 31 65 36 74 4 10 8 31
8 48 0 16 5 30 10 30 6 0 10 28 10 64 0 36 -4 68 -10 71 -5 3 -10 19 -10 36 0
16 -4 29 -10 29 -5 0 -10 9 -10 21 0 25 -43 70 -94 98 -40 23 -66 27 -66 11 0
-5 -5 -10 -11 -10 -15 0 -38 -30 -39 -50 0 -16 42 -70 54 -70 10 0 28 -20 44
-48 14 -26 17 -172 2 -172 -5 0 -10 -11 -10 -25 0 -14 -4 -25 -9 -25 -5 0 -12
-9 -16 -19 -8 -27 -107 -127 -133 -135 -12 -4 -22 -12 -22 -17 0 -5 -16 -9
-35 -9 -19 0 -35 -5 -35 -11 0 -7 -24 -9 -72 -5 -100 7 -158 17 -158 26 0 5
-9 12 -20 15 -24 8 -26 31 -5 52 8 8 13 19 10 24 -4 5 -2 9 3 9 4 0 16 16 25
35 32 67 19 251 -20 293 -7 7 -13 18 -13 23 0 36 -68 51 -105 23 -24 -18 -25
-85 -1 -109 9 -9 16 -25 16 -36 0 -10 5 -19 10 -19 11 0 14 -87 3 -92 -5 -1
-17 -21 -28 -43 -24 -49 -87 -115 -109 -115 -9 0 -16 -4 -16 -8 0 -5 -28 -16
-62 -26 -35 -9 -71 -22 -80 -27 -22 -11 -148 -12 -148 -1 0 5 -40 16 -90 26
-49 11 -90 23 -90 27 0 5 -7 9 -15 9 -8 0 -15 5 -15 10 0 6 -9 10 -21 10 -11
0 -33 8 -47 19 -15 10 -45 27 -67 37 -22 10 -44 22 -50 26 -5 4 -24 19 -41 33
-18 14 -38 25 -46 25 -7 0 -20 9 -28 20 -8 11 -25 20 -37 20 -13 0 -23 5 -23
11 0 14 -25 39 -39 39 -6 0 -11 5 -11 10 0 6 -7 10 -15 10 -8 0 -15 3 -15 8 0
7 -30 25 -62 38 -10 3 -18 10 -18 15 0 5 -9 9 -20 9 -11 0 -20 5 -20 10 0 6
-6 10 -14 10 -8 0 -16 7 -20 15 -3 8 -12 15 -21 15 -8 0 -15 5 -15 10 0 6 -11
10 -25 10 -14 0 -25 5 -25 10 0 6 -11 10 -25 10 -16 0 -25 6 -25 16 0 8 -4 13
-9 10 -4 -3 -17 1 -27 9 -10 8 -31 15 -46 15 -16 0 -28 5 -28 10 0 6 -16 10
-35 10 -19 0 -35 4 -35 8 0 10 -202 34 -285 34 -78 0 -235 -23 -235 -34 0 -4
-11 -8 -25 -8 -14 0 -25 -4 -25 -10 0 -5 -6 -10 -14 -10 -18 0 -76 -32 -76
-42 0 -5 -5 -8 -10 -8 -17 0 -130 -110 -130 -126 0 -4 -8 -14 -18 -23 -25 -23
-52 -67 -52 -86 0 -8 -4 -15 -10 -15 -5 0 -10 -11 -10 -25 0 -14 -4 -25 -10
-25 -5 0 -13 -12 -16 -27 -4 -16 -10 -32 -14 -38 -18 -24 -28 -175 -16 -240 9
-44 36 -105 48 -105 5 0 8 -7 8 -16 0 -20 68 -86 81 -79 5 4 9 2 9 -2 0 -18
60 -43 104 -43 33 0 52 6 66 20 24 24 27 80 5 80 -8 0 -15 4 -15 8 0 4 -20 13
-45 20 -49 13 -115 73 -115 104 0 10 -4 18 -10 18 -6 0 -10 35 -10 85 0 50 4
85 10 85 6 0 10 12 10 28 0 15 7 36 15 46 8 11 15 28 15 38 0 10 5 18 10 18 6
0 10 7 10 15 0 8 5 15 10 15 6 0 10 8 10 18 0 9 11 26 25 36 14 10 25 27 25
37 0 11 5 19 10 19 6 0 23 12 37 27 16 15 29 21 31 15 2 -7 -4 -19 -12 -28 -9
-8 -14 -19 -11 -24 3 -5 2 -10 -3 -12 -4 -1 -19 -28 -32 -58 -32 -74 -40 -228
-15 -312 9 -32 21 -60 26 -63 5 -4 9 -15 9 -26 0 -10 5 -19 10 -19 6 0 10 -4
10 -10 0 -5 11 -21 24 -35 13 -15 28 -31 33 -36 34 -38 114 -109 122 -109 6 0
11 -3 11 -7 0 -5 19 -17 42 -28 35 -17 38 -21 20 -23 -12 -2 -22 -7 -22 -10 0
-4 -20 -16 -45 -27 -25 -11 -45 -23 -45 -27 0 -5 -7 -8 -16 -8 -8 0 -12 -4 -9
-10 3 -5 -2 -10 -13 -10 -10 0 -31 -11 -46 -25 -15 -14 -34 -25 -42 -25 -7 0
-14 -7 -14 -15 0 -8 -4 -15 -10 -15 -5 0 -10 -13 -10 -30 0 -16 5 -30 10 -30
6 0 10 -7 10 -15 0 -11 12 -15 48 -15 42 0 51 4 62 25 7 14 22 25 33 25 11 0
27 8 36 18 9 11 28 22 44 26 15 3 27 11 27 16 0 6 7 10 15 10 8 0 15 5 15 10
0 6 11 10 24 10 26 0 86 30 86 43 0 4 18 7 40 7 22 0 40 3 40 8 0 11 75 32
115 32 19 0 35 4 35 9 0 5 12 11 28 14 109 23 192 39 222 43 19 3 44 9 55 14
11 5 47 11 80 13 33 3 110 12 170 21 90 13 129 14 215 6 58 -6 113 -13 123
-16 26 -8 21 -24 -8 -24 -16 0 -25 -6 -25 -15 0 -8 -5 -15 -10 -15 -14 0 -80
-43 -80 -53 0 -4 -9 -17 -20 -29 -10 -11 -22 -34 -25 -49 -4 -16 -11 -29 -16
-29 -5 0 -9 -45 -9 -100 0 -93 -1 -100 -20 -100 -11 0 -20 -4 -20 -10 0 -5 -8
-10 -18 -10 -9 0 -34 -11 -54 -25 -20 -14 -41 -25 -46 -25 -5 0 -19 -11 -32
-25 -13 -14 -28 -25 -34 -25 -6 0 -17 -9 -24 -20 -7 -11 -19 -20 -27 -20 -8 0
-15 -4 -15 -8 0 -8 -18 -28 -171 -189 -33 -34 -59 -67 -59 -72 0 -6 -4 -11
-10 -11 -5 0 -10 -9 -10 -20 0 -11 -6 -20 -13 -20 -8 0 -20 -11 -27 -25 -7
-14 -17 -25 -22 -25 -4 0 -8 -7 -8 -15 0 -9 -11 -28 -25 -43 -14 -15 -25 -32
-25 -39 0 -6 -4 -13 -9 -15 -5 -1 -11 -12 -13 -23 -1 -11 -13 -30 -25 -43 -20
-20 -28 -41 -24 -64 0 -5 -4 -8 -9 -8 -6 0 -10 -9 -10 -20 0 -11 -4 -20 -10
-20 -5 0 -10 -11 -10 -24 0 -14 -4 -27 -9 -30 -5 -4 -12 -24 -16 -46 -4 -22
-11 -42 -16 -46 -5 -3 -9 -20 -9 -39 0 -19 -4 -37 -10 -40 -5 -3 -10 -24 -10
-46 0 -21 -4 -39 -10 -39 -5 0 -10 -15 -10 -32 -1 -18 -7 -44 -15 -58 -8 -14
-14 -44 -15 -67 0 -24 -4 -43 -9 -43 -10 0 -19 -61 -27 -185 -3 -44 -10 -82
-15 -85 -4 -3 -10 -53 -11 -111 -3 -113 3 -129 53 -147 20 -8 20 -10 5 -24 -9
-9 -16 -26 -16 -37 0 -12 -4 -21 -10 -21 -5 0 -10 -6 -10 -14 0 -8 -4 -16 -8
-18 -11 -4 -62 -98 -62 -114 0 -8 -4 -14 -10 -14 -5 0 -10 -8 -10 -17 0 -10
-7 -27 -15 -37 -8 -11 -15 -28 -15 -38 0 -10 -4 -18 -10 -18 -5 0 -10 -10 -10
-23 0 -13 -4 -27 -9 -32 -5 -6 -11 -21 -13 -35 -1 -14 -5 -27 -8 -30 -15 -14
-49 -150 -57 -222 -3 -27 -9 -48 -13 -48 -11 0 -19 -94 -26 -297 -5 -141 -4
-164 11 -187 14 -20 25 -26 55 -26 64 0 70 19 70 234 0 112 4 187 10 191 6 3
10 28 10 56 0 27 4 49 9 49 5 0 13 25 16 55 4 30 11 58 16 61 5 3 9 18 9 35 0
16 5 29 10 29 6 0 10 16 10 35 0 19 4 35 8 35 5 0 15 19 22 43 7 23 20 56 28
72 8 17 19 38 23 47 5 10 9 25 9 33 0 8 5 15 10 15 6 0 10 5 10 10 0 6 11 28
25 50 14 22 25 46 25 55 0 8 5 15 10 15 6 0 10 4 10 10 0 9 39 72 60 97 5 7
10 17 10 23 0 5 4 10 8 10 5 0 15 12 23 27 8 15 29 42 47 61 17 19 32 39 32
44 0 4 16 24 35 42 19 19 35 37 35 41 0 11 28 35 41 35 7 0 10 3 6 6 -3 4 15
28 41 55 26 27 52 54 58 61 7 7 28 26 48 42 20 16 36 35 36 43 0 7 4 13 9 13
5 0 37 28 70 63 33 34 65 67 71 72 7 6 47 46 91 89 65 66 79 85 79 111 0 38
-26 65 -63 65 -20 0 -58 -31 -168 -137 -190 -186 -181 -177 -206 -204 -25 -28
-39 -42 -70 -71 -13 -12 -23 -28 -23 -35 0 -7 -6 -13 -13 -13 -13 0 -57 -44
-57 -56 0 -8 -27 -34 -35 -34 -9 0 -35 -27 -35 -37 0 -5 -9 -15 -20 -23 -11
-8 -20 -18 -20 -22 0 -4 -8 -16 -17 -26 -29 -30 -53 -62 -74 -95 l-20 -32 5
100 c6 112 20 237 29 251 3 5 8 29 12 53 3 24 10 54 16 68 5 13 9 37 9 53 0
16 5 32 10 35 6 3 10 24 10 46 0 21 5 39 10 39 6 0 10 20 10 45 0 25 5 45 10
45 6 0 10 10 10 23 1 12 7 33 15 47 8 14 14 35 15 48 0 12 5 22 10 22 6 0 10
14 10 30 0 17 5 30 10 30 6 0 10 11 10 25 0 16 6 25 15 25 8 0 15 9 15 20 0
11 5 20 10 20 6 0 10 7 10 15 0 8 5 15 10 15 6 0 10 7 10 15 0 9 11 28 25 43
14 15 25 31 25 35 0 5 6 14 13 21 6 7 21 25 32 40 41 57 119 147 178 207 26
27 47 53 47 59 0 5 6 10 13 10 7 0 23 10 35 23 30 32 50 47 62 47 5 0 10 4 10
8 0 5 12 15 28 23 15 8 33 20 40 27 7 6 20 12 28 12 8 0 14 5 14 10 0 6 14 10
30 10 17 0 30 -5 30 -11 0 -12 25 -39 36 -39 3 0 14 -8 23 -18 56 -62 151 -73
151 -17 0 13 6 26 13 28 10 4 10 6 0 6 -7 1 -13 12 -13 25 0 17 -7 26 -23 30
-13 3 -34 14 -46 25 -13 11 -26 21 -29 23 -14 6 -52 135 -52 175 0 43 26 113
43 113 12 0 37 26 37 39 0 6 11 11 25 11 14 0 25 5 25 10 0 6 16 10 35 10 19
0 35 5 35 10 0 6 52 10 135 10 83 0 135 -4 135 -10 0 -5 16 -10 35 -10 19 0
35 -4 35 -10 0 -5 9 -10 19 -10 18 0 45 -18 98 -67 13 -13 28 -23 33 -23 5 0
15 -10 21 -22 7 -13 20 -30 31 -39 10 -9 18 -21 18 -28 0 -6 5 -11 10 -11 6 0
10 -7 10 -15 0 -9 7 -18 15 -21 8 -4 15 -14 15 -23 1 -32 26 -51 66 -51 33 0
42 5 57 31 16 30 17 33 0 70 -9 22 -20 39 -25 39 -4 0 -8 8 -8 18 0 10 -15 35
-32 55 -18 20 -41 48 -51 62 -10 14 -25 25 -33 25 -8 0 -13 4 -10 8 2 4 -9 17
-25 27 -16 11 -29 23 -29 28 0 4 -9 7 -20 7 -11 0 -20 4 -20 8 0 13 48 32 80
32 17 0 30 5 30 10 0 6 40 10 100 10 60 0 100 -4 100 -10 0 -5 12 -10 27 -10
40 0 183 -49 183 -62 0 -5 9 -8 20 -8 11 0 20 -4 20 -10 0 -5 7 -10 15 -10 8
0 15 -4 15 -10 0 -5 9 -10 20 -10 11 0 20 -5 20 -11 0 -5 20 -30 45 -55 25
-24 45 -51 45 -59 0 -8 5 -15 10 -15 6 0 10 -9 10 -20 0 -12 -7 -20 -16 -20
-19 0 -74 -53 -74 -72 1 -18 25 -48 39 -48 6 0 11 -4 11 -10 0 -5 14 -10 30
-10 17 0 30 5 30 10 0 6 14 10 30 10 17 0 30 5 30 10 0 6 35 10 84 10 47 0 88
-4 91 -10 3 -5 19 -10 34 -10 31 0 86 -25 115 -52 11 -10 28 -18 38 -18 11 0
18 -7 18 -19 0 -10 7 -22 15 -25 9 -3 21 -19 26 -36 6 -16 15 -30 20 -30 5 0
9 -18 9 -40 0 -22 -4 -40 -10 -40 -5 0 -17 -16 -26 -35 -9 -19 -20 -35 -25
-35 -5 0 -9 -9 -9 -19 0 -11 -6 -21 -12 -24 -10 -3 -9 -11 4 -33 18 -32 67
-62 77 -47 3 4 19 17 34 26 28 18 29 18 73 -8 24 -14 44 -30 44 -35 0 -6 5
-10 11 -10 12 0 79 -69 79 -81 0 -5 7 -9 15 -9 8 0 15 -9 15 -19 0 -11 3 -21
8 -23 9 -4 62 -110 62 -126 0 -6 5 -12 10 -12 6 0 10 -13 10 -29 l0 -28 -47
44 c-84 77 -92 83 -113 83 -11 0 -20 5 -20 10 0 6 -9 10 -20 10 -11 0 -20 6
-20 13 0 10 -19 15 -70 16 -57 2 -70 -1 -70 -13 0 -9 -4 -16 -10 -16 -14 0
-12 -52 4 -72 7 -10 26 -18 43 -18 17 0 35 -6 41 -13 6 -7 27 -19 47 -27 19
-7 35 -17 35 -22 0 -4 6 -8 13 -8 7 0 26 -16 42 -35 17 -19 36 -35 43 -35 6 0
12 -9 12 -20 0 -11 4 -20 9 -20 5 0 11 -8 15 -17 3 -10 14 -31 25 -48 11 -16
20 -40 20 -52 1 -13 5 -23 10 -23 4 0 12 -19 16 -42 3 -24 11 -68 16 -98 10
-58 21 -241 13 -202 -3 12 -10 22 -15 22 -5 0 -9 6 -9 14 0 18 -91 174 -119
203 -12 12 -21 27 -21 33 0 6 -4 8 -10 5 -5 -3 -10 0 -10 8 0 7 -11 20 -25 27
-14 7 -25 17 -25 22 0 10 -46 58 -55 58 -3 0 -20 13 -38 30 -18 16 -35 30 -38
30 -3 0 -19 11 -35 25 -26 23 -32 26 -49 25 -3 -1 -12 5 -20 12 -35 32 -45 38
-60 38 -9 0 -23 7 -32 15 -8 9 -35 21 -59 27 -24 7 -44 16 -44 20 0 4 -11 8
-24 8 -13 0 -26 4 -28 9 -1 6 -22 11 -45 12 -24 2 -43 7 -43 11 0 4 -20 8 -44
8 -27 0 -46 5 -49 13 -5 17 -624 18 -635 1 -4 -7 -35 -15 -69 -18 -35 -3 -90
-9 -123 -12 -33 -3 -60 -10 -60 -15 0 -5 -16 -9 -35 -9 -19 0 -35 -4 -35 -9 0
-5 -22 -11 -50 -15 -27 -4 -52 -11 -55 -16 -3 -6 -17 -10 -31 -10 -13 0 -24
-4 -24 -10 0 -5 -9 -10 -21 -10 -19 0 -167 -66 -179 -79 -3 -3 -27 -17 -54
-31 -28 -14 -60 -35 -73 -47 -12 -13 -26 -23 -30 -23 -4 0 -16 -9 -28 -20 -11
-11 -48 -46 -82 -79 -35 -32 -63 -64 -63 -70 0 -6 -4 -11 -10 -11 -5 0 -10 -5
-10 -10 0 -6 -10 -21 -22 -34 -13 -12 -34 -39 -48 -59 -14 -20 -28 -37 -32
-37 -5 0 -8 -4 -8 -10 0 -5 -10 -20 -22 -34 -37 -40 -48 -55 -48 -66 0 -5 -4
-10 -8 -10 -4 0 -16 -15 -27 -32 -10 -18 -22 -37 -27 -43 -4 -5 -28 -36 -53
-67 -25 -32 -45 -62 -45 -68 0 -5 -4 -10 -10 -10 -5 0 -10 -7 -10 -15 0 -8 -3
-15 -8 -15 -4 0 -16 -16 -26 -35 -11 -19 -23 -35 -28 -35 -4 0 -8 -9 -8 -20 0
-11 -4 -20 -10 -20 -5 0 -10 -5 -10 -10 0 -10 -8 -22 -37 -55 -7 -7 -13 -21
-13 -29 0 -9 -4 -16 -10 -16 -5 0 -10 -7 -10 -15 0 -8 -4 -15 -10 -15 -5 0
-10 -6 -10 -14 0 -7 -7 -19 -15 -26 -8 -7 -15 -21 -15 -31 0 -11 -4 -19 -10
-19 -5 0 -10 -9 -10 -20 0 -11 -4 -20 -10 -20 -5 0 -10 -5 -10 -11 0 -6 -11
-25 -25 -43 -14 -18 -25 -43 -25 -54 0 -12 -4 -22 -10 -22 -5 0 -10 -13 -10
-30 0 -16 -3 -30 -8 -30 -14 0 -62 -109 -62 -140 0 -11 -3 -20 -8 -20 -4 0
-15 -28 -26 -62 -10 -35 -22 -71 -27 -80 -5 -10 -9 -33 -9 -52 0 -19 -4 -38
-10 -41 -5 -3 -10 -33 -10 -66 0 -33 -4 -59 -10 -59 -5 0 -10 -11 -10 -25 0
-14 4 -25 9 -25 5 0 12 -44 15 -97 4 -96 18 -208 30 -248 3 -11 8 -36 11 -55
8 -58 29 -130 37 -130 5 0 8 -15 8 -34 0 -19 5 -38 10 -41 6 -3 10 -17 10 -30
0 -13 4 -26 9 -30 5 -3 12 -19 16 -35 4 -17 11 -30 16 -30 5 0 9 -16 9 -35 0
-19 5 -35 10 -35 6 0 10 -11 10 -24 0 -14 5 -28 10 -31 6 -3 10 -20 10 -36 0
-17 6 -32 15 -35 9 -4 15 -19 15 -40 0 -19 5 -34 10 -34 6 0 10 -16 10 -35 0
-19 4 -35 9 -35 5 0 11 -17 14 -38 10 -65 31 -142 39 -142 4 0 8 -32 8 -71 0
-40 4 -68 9 -64 10 5 12 -25 31 -365 5 -112 14 -196 20 -198 5 -2 10 -26 10
-53 0 -27 5 -49 10 -49 6 0 10 -18 10 -39 0 -22 5 -43 10 -46 6 -3 10 -14 10
-25 0 -23 50 -120 61 -120 5 0 9 -9 9 -21 0 -11 6 -26 13 -34 6 -7 21 -26 32
-41 35 -50 193 -204 208 -204 9 0 17 -3 19 -7 5 -13 76 -63 87 -63 6 0 11 -4
11 -10 0 -5 6 -10 14 -10 8 0 31 -8 53 -19 73 -35 114 -51 133 -51 11 0 20 -4
20 -10 0 -5 17 -10 38 -10 21 0 43 -5 48 -10 25 -25 259 -32 504 -16 74 4 140
13 147 18 14 11 205 5 301 -10 77 -12 202 -51 202 -63 0 -5 7 -9 15 -9 14 0
39 -17 77 -53 10 -9 23 -17 29 -17 5 0 7 -5 4 -10 -3 -5 -2 -10 4 -10 6 0 13
-11 17 -25 3 -14 10 -25 15 -25 5 0 9 -29 9 -65 0 -37 -4 -65 -10 -65 -5 0
-10 -7 -10 -16 0 -18 -24 -44 -58 -61 -29 -15 -93 -17 -136 -4 -46 14 -124 30
-181 37 -27 3 -58 10 -67 15 -9 5 -39 9 -67 9 -28 0 -51 4 -51 9 0 10 -61 18
-195 27 -44 3 -83 10 -86 15 -9 15 -322 15 -327 1 -2 -7 -19 -12 -38 -12 -19
0 -44 -5 -57 -12 -48 -24 -57 -28 -76 -28 -11 0 -21 -6 -23 -12 -6 -18 -262
-18 -279 0 -7 6 -23 12 -36 12 -13 0 -23 5 -23 10 0 6 -9 10 -19 10 -11 0 -23
5 -26 10 -3 6 -15 10 -26 10 -20 0 -30 7 -74 47 -13 13 -31 23 -40 23 -8 0
-15 5 -15 10 0 6 -7 10 -15 10 -8 0 -15 5 -15 10 0 14 -46 60 -60 60 -5 0 -10
5 -10 10 0 6 -16 26 -35 46 -19 19 -35 40 -35 47 0 7 -9 19 -20 27 -11 8 -20
25 -20 37 0 13 -4 23 -10 23 -5 0 -10 9 -10 20 0 11 -7 20 -15 20 -10 0 -15
10 -15 30 0 17 -4 30 -10 30 -5 0 -10 11 -10 25 0 14 -4 25 -10 25 -5 0 -10
15 -10 33 -1 17 -7 43 -15 57 -8 14 -14 51 -15 83 0 31 -4 57 -10 57 -6 0 -10
53 -10 140 0 77 4 140 9 140 10 0 23 218 24 420 1 170 -12 370 -24 370 -5 0
-9 41 -9 91 0 57 -4 88 -10 84 -6 -4 -10 14 -10 47 0 30 -4 58 -9 64 -5 5 -11
27 -14 49 -8 59 -28 139 -38 150 -5 5 -9 22 -9 37 0 15 -4 28 -10 28 -5 0 -10
16 -10 35 0 19 -3 35 -7 35 -5 0 -17 29 -28 65 -10 36 -23 65 -27 65 -4 0 -8
10 -8 23 0 13 -13 50 -29 83 -15 32 -31 69 -35 82 -4 12 -11 22 -15 22 -4 0
-13 11 -19 25 -16 34 -59 34 -89 -2 -23 -26 -31 -73 -13 -73 6 0 10 -7 10 -15
0 -15 3 -23 33 -83 9 -19 17 -40 17 -48 0 -8 5 -14 10 -14 6 0 10 -11 10 -24
0 -14 5 -28 10 -31 6 -3 10 -17 10 -30 0 -13 5 -27 10 -30 6 -3 10 -15 10 -25
0 -10 7 -25 15 -34 8 -8 15 -30 15 -50 0 -19 5 -38 10 -41 6 -3 10 -22 10 -41
0 -19 5 -34 10 -34 6 0 10 -14 10 -30 0 -17 7 -47 15 -67 8 -19 15 -51 15 -69
0 -19 5 -34 10 -34 6 0 10 -26 10 -58 0 -32 4 -62 9 -67 21 -22 24 -190 19
-995 -2 -249 9 -370 33 -370 5 0 9 -16 9 -35 0 -19 5 -35 10 -35 6 0 10 -13
10 -30 0 -16 5 -30 10 -30 6 0 10 -11 10 -25 0 -16 6 -25 15 -25 9 0 15 -9 15
-25 0 -14 5 -25 10 -25 6 0 10 -9 10 -20 0 -11 5 -20 10 -20 6 0 10 -6 10 -13
0 -7 16 -30 35 -50 19 -20 35 -41 35 -46 0 -14 144 -156 179 -177 17 -10 31
-22 31 -26 0 -4 9 -8 20 -8 11 0 20 -4 20 -10 0 -5 6 -10 14 -10 8 0 16 -7 20
-15 3 -8 12 -15 21 -15 8 0 15 -4 15 -10 0 -5 11 -10 24 -10 14 0 28 -4 31
-10 3 -5 19 -10 34 -10 16 0 34 -6 40 -14 17 -20 72 -29 196 -29 121 0 174 8
182 29 3 8 18 14 34 14 16 0 29 5 29 10 0 6 11 10 24 10 13 0 26 6 29 13 5 16
419 15 425 -2 2 -6 28 -11 63 -11 33 0 59 -4 59 -10 0 -6 28 -10 64 -10 36 0
66 -5 68 -11 4 -11 83 -26 186 -36 34 -3 62 -9 62 -14 0 -5 24 -9 54 -9 39 0
55 -4 60 -15 3 -8 14 -15 24 -15 35 0 47 -53 47 -200 -1 -105 -5 -144 -18
-174 -31 -69 -19 -116 30 -116 74 0 126 291 81 454 -14 50 -15 61 -3 72 7 8
18 14 24 14 16 0 71 58 71 75 0 8 3 15 8 15 9 0 38 73 47 119 9 45 -3 138 -21
155 -8 8 -14 22 -14 32 0 9 -8 24 -18 33 -34 29 -34 62 -2 93 17 15 30 32 30
36 0 4 18 26 40 50 22 23 40 44 40 47 0 6 51 86 60 95 10 10 60 116 60 128 0
6 3 12 8 12 10 0 32 50 32 72 0 10 4 18 9 18 5 0 12 16 15 35 4 19 11 35 16
35 6 0 10 11 10 24 0 14 5 28 10 31 6 4 10 57 10 126 0 73 -4 119 -10 119 -6
0 -10 43 -10 108 0 94 -2 110 -19 124 -55 47 -104 44 -150 -9 l-29 -34 -6 158
c-4 87 -11 172 -16 189 -6 17 -10 45 -10 63 0 18 -4 40 -9 49 -5 9 -11 40 -15
67 -3 28 -13 77 -22 110 -9 33 -18 74 -21 90 -2 17 -8 39 -13 50 -5 11 -11 36
-14 55 -3 19 -10 58 -15 85 -6 28 -14 67 -17 87 -4 21 -13 43 -20 49 -20 16
-20 419 -1 452 8 12 15 42 16 67 2 25 7 52 12 62 5 9 9 28 9 42 0 14 5 28 10
31 6 3 10 19 10 36 0 16 5 29 10 29 6 0 10 13 10 29 0 17 5 33 10 36 6 3 10
13 10 21 0 8 11 37 25 66 14 28 25 58 25 65 0 7 5 13 10 13 6 0 10 6 10 12 0
19 52 118 62 118 4 0 8 11 8 25 0 14 3 25 8 25 9 0 42 57 42 74 0 6 9 18 20
26 11 8 20 25 20 37 0 13 4 23 9 23 5 0 13 10 17 22 6 20 8 20 25 -13 12 -23
18 -56 19 -101 l0 -68 31 0 c22 0 40 10 65 35 18 19 37 35 41 35 10 0 113 113
113 125 0 4 6 13 13 20 31 35 37 45 37 60 0 8 5 15 10 15 6 0 10 11 10 24 0
13 3 26 8 28 13 6 62 113 62 136 0 12 5 22 10 22 6 0 10 13 10 29 0 17 4 32 9
35 12 8 41 99 41 130 0 14 5 28 10 31 6 3 10 24 10 46 0 42 17 69 45 69 18 0
45 23 45 38 0 6 4 12 8 14 4 2 15 18 24 37 22 47 25 265 3 356 -19 85 -20 312
-1 338 7 9 16 17 20 17 10 0 56 48 56 58 0 6 7 12 15 16 8 3 15 12 15 21 0 8
5 15 10 15 6 0 10 13 10 29 0 16 7 34 15 41 8 7 15 21 15 31 0 11 6 20 13 21
35 4 45 3 77 -5 131 -34 320 -179 403 -309 20 -32 22 -44 5 -31 -82 65 -283
133 -392 133 -47 0 -76 -22 -76 -57 0 -31 17 -39 110 -50 232 -27 482 -206
554 -396 13 -34 24 -49 42 -53 30 -8 64 19 64 52 0 35 -68 158 -121 218 -44
49 -48 57 -38 79 14 30 -3 72 -66 166 -93 140 -275 284 -420 333 -38 12 -76
28 -82 35 -9 8 -13 49 -13 132 0 74 -4 121 -10 121 -5 0 -10 12 -10 28 0 15
-7 36 -15 46 -8 11 -15 27 -15 35 0 9 -11 29 -25 45 -13 16 -27 37 -30 47 -4
11 -13 19 -21 19 -18 0 -18 37 0 56 8 8 18 14 22 14 7 0 30 25 60 65 10 15 25
33 32 40 6 8 12 16 12 20 0 3 10 17 23 30 41 44 48 55 50 75 1 11 5 20 9 20 4
0 8 9 8 19 0 10 7 21 15 25 8 3 15 14 15 25 0 11 5 23 10 26 6 3 10 19 10 36
0 16 5 29 10 29 6 0 10 20 10 44 0 25 5 48 10 51 6 4 10 60 10 136 0 79 -4
129 -10 129 -5 0 -10 20 -10 44 0 25 -4 48 -10 51 -5 3 -10 17 -10 31 0 13 -5
24 -11 24 -7 0 -8 7 -4 18 4 9 9 24 10 32 1 8 5 22 8 30 27 68 34 151 17 194
-8 22 -7 26 9 26 10 0 26 9 36 20 26 28 17 168 -14 228 -62 121 -198 193 -360
191 -47 -1 -108 -8 -134 -16z m155 -324 c146 -31 228 -118 211 -226 -5 -28 -8
-30 -24 -20 -11 7 -19 23 -19 39 0 18 -5 28 -15 28 -8 0 -15 -6 -15 -12 0 -7
-6 -4 -12 7 -6 11 -19 26 -29 33 -10 7 -25 19 -33 27 -8 8 -18 15 -22 15 -4 0
-19 11 -33 24 -32 29 -120 76 -143 76 -10 0 -18 5 -18 10 0 13 86 13 152 -1z
m-3439 -146 c-7 -2 -13 -11 -13 -19 0 -8 -5 -14 -11 -14 -16 0 -39 -26 -39
-44 0 -9 -4 -16 -10 -16 -5 0 -10 -7 -10 -15 0 -8 -4 -15 -10 -15 -5 0 -12
-11 -16 -25 -3 -14 -10 -25 -15 -25 -5 0 -9 -13 -9 -30 0 -16 -4 -30 -10 -30
-6 0 -10 -28 -10 -65 0 -36 -6 -74 -12 -85 -10 -15 -10 -22 0 -32 7 -7 12 -39
12 -75 0 -35 4 -63 10 -63 6 0 10 -11 10 -25 0 -14 5 -25 10 -25 6 0 10 -8 10
-19 0 -10 7 -24 15 -31 8 -7 15 -18 15 -24 0 -6 9 -18 20 -26 11 -8 20 -19 20
-26 0 -6 11 -17 25 -24 37 -20 30 -30 -20 -30 -25 0 -45 -4 -45 -10 0 -5 -11
-10 -25 -10 -14 0 -25 5 -25 10 0 6 -13 10 -30 10 -16 0 -30 5 -30 11 0 15
-31 38 -50 39 -9 0 -22 9 -30 20 -8 11 -19 20 -25 20 -13 0 -85 68 -85 80 0 5
-9 12 -20 15 -11 3 -20 15 -20 26 0 10 -4 19 -10 19 -5 0 -10 9 -10 19 0 11
-4 21 -8 23 -4 2 -15 33 -24 69 -14 59 -14 72 0 130 9 35 19 66 24 67 4 2 8
14 8 26 0 12 9 28 20 36 11 8 20 20 20 27 0 7 16 28 35 47 19 20 35 40 35 46
0 5 7 10 15 10 8 0 15 5 15 10 0 6 8 10 18 10 10 0 24 9 32 20 13 18 25 20
140 19 69 0 119 -3 113 -6z m211 -68 c3 -8 15 -15 26 -15 11 0 20 -4 20 -10 0
-5 9 -10 20 -10 11 0 20 -4 20 -10 0 -5 11 -10 25 -10 14 0 25 -5 25 -11 0
-15 31 -38 50 -39 9 0 22 -9 30 -20 8 -11 19 -20 25 -20 6 0 22 -11 37 -25 15
-14 34 -25 43 -25 8 0 15 -4 15 -10 0 -5 5 -10 10 -10 10 0 22 -8 55 -37 7 -7
18 -13 24 -13 6 0 11 -4 11 -10 0 -5 7 -10 16 -10 9 0 25 -11 36 -25 11 -14
28 -25 39 -25 15 0 19 -7 19 -35 0 -19 -4 -35 -10 -35 -5 0 -10 -8 -10 -17 0
-19 -48 -120 -65 -139 -11 -11 -26 -15 -135 -33 -30 -5 -66 -13 -80 -18 -14
-6 -52 -11 -85 -12 -33 -1 -61 -7 -63 -12 -2 -5 -24 -9 -48 -9 -24 0 -44 -4
-44 -10 0 -19 -65 -11 -80 10 -8 11 -18 20 -23 20 -12 0 -57 47 -57 60 0 5 -4
10 -8 10 -12 0 -62 97 -62 119 0 11 -4 23 -10 26 -14 8 -13 140 1 184 15 48
62 141 72 141 4 0 7 5 7 10 0 12 45 60 55 60 4 0 13 7 21 15 9 8 28 15 44 15
16 0 30 -7 34 -15z m2709 -397 c15 -7 27 -16 27 -20 0 -5 5 -8 11 -8 18 0 99
-93 99 -113 0 -7 6 -19 13 -26 8 -8 12 -41 11 -94 0 -66 -5 -90 -23 -121 -28
-49 -95 -116 -116 -116 -8 0 -15 -4 -15 -9 0 -5 -11 -12 -25 -15 -14 -4 -25
-11 -25 -16 0 -6 -47 -10 -115 -10 -111 0 -117 1 -139 25 -13 14 -31 25 -40
25 -19 0 -50 28 -86 80 -44 61 -50 81 -50 160 0 94 20 140 61 140 14 0 29 4
35 8 5 5 48 21 97 37 48 15 87 32 87 36 0 5 14 9 30 9 17 0 30 5 30 10 0 6 11
10 25 10 14 0 25 5 25 10 0 14 51 12 83 -2z m-1998 -38 c3 -5 13 -10 21 -10 9
0 22 -6 30 -14 16 -16 20 -61 4 -51 -5 3 -10 -1 -10 -9 0 -9 -6 -16 -14 -16
-7 0 -16 -9 -19 -20 -4 -17 -14 -20 -56 -20 -55 0 -57 2 -36 40 8 14 14 35 15
48 0 12 5 22 10 22 6 0 10 9 10 20 0 21 33 29 45 10z m675 -19 c0 -5 10 -13
22 -17 12 -3 31 -15 42 -25 12 -12 34 -19 57 -19 21 0 39 -4 41 -9 10 -30 258
-30 258 0 0 5 13 9 30 9 31 0 80 19 80 31 0 11 49 21 71 14 18 -6 18 -7 -1
-28 -11 -11 -20 -28 -20 -37 0 -9 -7 -25 -15 -36 -8 -10 -15 -29 -15 -41 0
-12 -4 -25 -10 -28 -5 -3 -10 -15 -10 -26 0 -10 -4 -19 -10 -19 -5 0 -10 5
-10 10 0 6 -16 10 -35 10 -19 0 -35 5 -35 10 0 6 -16 10 -35 10 -19 0 -35 5
-35 10 0 6 -63 10 -170 10 -107 0 -170 -4 -170 -10 0 -5 -16 -10 -35 -10 -19
0 -35 -4 -35 -10 0 -5 -13 -10 -28 -10 -30 0 -87 -24 -97 -41 -8 -12 -132 -12
-140 1 -3 6 -31 10 -61 10 -30 0 -54 -4 -54 -10 0 -5 -20 -10 -45 -10 -45 0
-45 0 -45 34 0 19 -7 42 -16 51 -15 14 -14 18 10 38 14 13 26 28 26 36 0 35
26 41 169 41 87 0 141 4 141 10 0 6 8 10 18 10 19 0 107 32 118 43 11 10 44 9
44 -2z m1620 -71 c0 -12 52 -94 63 -98 4 -2 7 -21 7 -42 0 -21 5 -42 10 -45 6
-3 10 -21 10 -40 0 -19 -4 -37 -10 -40 -5 -3 -10 -24 -10 -46 0 -21 -4 -39 -8
-39 -4 0 -14 -16 -21 -35 -7 -20 -23 -47 -37 -60 -13 -13 -24 -29 -24 -35 0
-5 -7 -10 -16 -10 -8 0 -12 -4 -9 -10 3 -5 -2 -10 -13 -10 -10 0 -28 -9 -40
-20 -12 -12 -35 -20 -54 -20 -32 0 -118 -27 -128 -41 -3 -3 -26 -9 -51 -13
-36 -5 -50 -3 -62 9 -9 8 -20 15 -26 15 -6 0 -11 5 -11 10 0 6 16 10 35 10 19
0 35 5 35 10 0 6 15 10 34 10 19 0 41 7 50 15 8 8 21 15 30 15 8 0 18 5 21 10
3 6 13 10 21 10 28 0 164 152 164 183 0 9 5 17 11 19 11 4 24 55 35 133 3 22
-1 68 -9 103 -8 34 -10 62 -6 62 5 0 9 -5 9 -10z m-895 -247 c5 -22 3 -33 -4
-33 -6 0 -11 5 -11 10 0 6 -9 10 -20 10 -22 0 -23 6 -20 94 1 35 8 65 16 73 8
8 15 20 16 26 1 7 5 -24 9 -68 4 -44 10 -95 14 -112z m161 -223 c8 0 12 -4 9
-10 -4 -6 5 -10 19 -10 14 0 26 -4 26 -10 0 -5 -16 -10 -35 -10 -28 0 -35 4
-35 19 0 11 -5 23 -10 26 -6 4 -7 12 -3 18 5 8 9 7 11 -5 2 -10 10 -18 18 -18z
m780 -216 c30 -9 54 -21 54 -25 0 -5 7 -9 16 -9 16 0 64 -47 64 -63 0 -4 11
-25 25 -47 14 -22 25 -52 25 -68 0 -15 5 -33 11 -39 16 -16 -3 -253 -21 -253
-4 0 -11 -11 -14 -25 -4 -14 -11 -25 -16 -25 -6 0 -10 -9 -10 -20 0 -11 -4
-20 -10 -20 -5 0 -10 -5 -10 -11 0 -15 -26 -39 -43 -39 -9 0 -20 18 -28 45 -7
25 -16 45 -19 45 -3 0 -14 16 -24 35 -11 19 -23 35 -28 35 -4 0 -8 6 -8 13 0
17 -123 147 -140 147 -7 0 -21 11 -32 25 -11 14 -26 25 -34 25 -33 0 -44 27
-44 103 0 54 -4 78 -15 87 -25 21 -19 50 10 50 14 0 25 5 25 10 0 6 8 10 19
10 10 0 30 6 44 13 39 20 141 21 203 1z m-1151 -816 c7 -20 13 -228 8 -249 -3
-11 -26 -28 -52 -40 -50 -22 -133 -21 -185 2 -25 12 -26 15 -26 106 0 55 4 93
10 93 6 0 10 20 10 44 0 52 -4 50 143 54 64 2 89 -1 92 -10z m235 -19 c25 -6
65 -13 89 -16 55 -7 76 -25 61 -52 -5 -11 -10 -34 -10 -51 0 -18 -4 -29 -10
-25 -6 4 -10 -8 -10 -29 0 -20 -4 -36 -10 -36 -5 0 -12 -22 -16 -50 l-7 -50
-56 0 c-61 0 -107 16 -117 40 -3 8 -8 77 -10 154 l-5 139 28 -7 c15 -4 48 -12
73 -17z m-610 -68 c0 -39 -4 -73 -10 -76 -5 -3 -10 -36 -10 -72 0 -59 -3 -68
-27 -89 -24 -20 -39 -24 -99 -24 l-72 0 -6 83 c-3 45 -9 110 -12 145 -5 52 -3
62 10 62 9 0 16 5 16 10 0 6 30 10 69 10 39 0 73 5 76 10 3 6 19 10 36 10 l29
0 0 -69z m-370 -208 c0 -168 -11 -296 -30 -338 -5 -11 -11 -31 -14 -45 -13
-67 -27 -105 -68 -187 -57 -114 -69 -134 -90 -154 -10 -9 -18 -20 -18 -24 0
-9 -52 -55 -62 -55 -5 0 -8 -5 -8 -11 0 -10 -24 -39 -33 -39 -3 0 -8 48 -11
108 -12 221 -22 316 -34 320 -8 2 -12 25 -12 63 0 33 -4 59 -10 59 -5 0 -10
16 -10 35 0 19 -4 43 -9 53 -5 9 -22 43 -37 75 -16 33 -33 61 -37 64 -9 6 15
28 93 87 30 22 61 47 68 54 7 6 20 12 28 12 8 0 14 5 14 10 0 6 9 10 20 10 11
0 20 5 20 10 0 6 6 10 14 10 18 0 76 32 76 43 0 4 16 7 35 7 19 0 35 4 35 9 0
13 52 19 68 8 9 -7 12 -56 12 -184z m1301 167 c11 0 31 -11 45 -25 14 -14 31
-25 39 -25 8 0 15 -4 15 -9 0 -5 14 -14 30 -21 31 -13 37 -24 20 -35 -5 -3
-10 -15 -10 -26 0 -10 -4 -19 -10 -19 -5 0 -10 -9 -10 -20 0 -11 -4 -20 -10
-20 -5 0 -10 -7 -10 -14 0 -8 -11 -27 -25 -42 -14 -15 -25 -33 -25 -39 0 -7
-7 -15 -15 -19 -18 -6 -45 2 -45 15 0 5 -9 9 -20 9 -11 0 -20 5 -20 10 0 6 -6
10 -14 10 -7 0 -16 15 -20 32 -7 38 3 148 14 148 4 0 10 12 13 28 9 44 29 88
34 75 3 -7 13 -13 24 -13z m347 -294 c12 -14 22 -31 22 -36 0 -6 4 -10 9 -10
5 0 12 -11 15 -25 4 -14 11 -25 16 -25 6 0 10 -8 10 -17 0 -10 9 -33 20 -51
16 -26 20 -50 20 -127 0 -51 -4 -96 -9 -99 -4 -3 -14 -34 -21 -68 -6 -35 -18
-76 -25 -93 -7 -16 -18 -50 -26 -75 -7 -25 -19 -55 -27 -67 -8 -13 -11 -23 -8
-23 4 0 0 -10 -8 -22 -9 -12 -16 -30 -16 -40 0 -10 -4 -18 -10 -18 -5 0 -10
-9 -10 -20 0 -11 -4 -20 -10 -20 -5 0 -10 -4 -10 -10 0 -13 -53 -89 -62 -90
-5 0 -8 7 -8 15 0 8 -4 15 -10 15 -6 0 -10 32 -10 75 0 43 -4 75 -10 75 -6 0
-10 30 -10 70 0 39 -4 70 -9 70 -5 0 -11 32 -13 72 -2 44 -9 73 -16 76 -8 2
-12 26 -12 63 0 33 -4 59 -10 59 -6 0 -10 30 -10 70 0 40 -4 70 -10 70 -15 0
-12 60 4 76 8 8 19 14 23 14 12 0 53 47 53 60 0 6 5 10 10 10 6 0 10 7 10 15
0 9 11 26 25 39 14 13 25 31 25 40 0 9 6 23 13 31 12 15 20 8 95 -79z m-1075
-16 c72 -13 105 -8 186 26 36 16 62 12 103 -17 22 -16 45 -19 142 -19 95 0
116 -3 116 -15 0 -8 10 -20 23 -26 12 -7 29 -20 37 -29 8 -9 25 -22 38 -29 12
-6 22 -20 22 -31 0 -10 5 -22 10 -25 20 -12 10 -57 -17 -79 -15 -11 -31 -20
-36 -18 -5 1 -6 -2 -2 -7 3 -6 -8 -23 -25 -39 -16 -16 -30 -35 -30 -41 0 -15
-25 -41 -40 -41 -37 0 -190 -138 -190 -172 0 -4 -7 -8 -15 -8 -22 0 -95 -77
-95 -100 0 -11 -4 -20 -10 -20 -5 0 -10 -13 -10 -29 0 -17 -4 -33 -10 -36 -26
-16 -5 -345 21 -345 4 0 10 -11 13 -25 4 -16 13 -25 26 -25 11 0 20 -4 20 -10
0 -6 28 -10 65 -10 37 0 65 4 65 10 0 6 11 10 25 10 14 0 25 5 25 10 0 6 7 10
15 10 8 0 15 7 15 15 0 8 7 15 15 15 16 0 75 84 75 107 0 8 14 27 30 43 30 30
60 39 60 20 0 -5 -3 -10 -7 -10 -11 0 -43 -58 -43 -76 0 -8 -4 -14 -10 -14 -5
0 -10 -6 -10 -13 0 -7 -11 -24 -25 -39 -14 -15 -25 -36 -25 -48 0 -11 -4 -20
-10 -20 -5 0 -10 -9 -10 -20 0 -11 -3 -20 -8 -20 -4 0 -16 -17 -26 -37 -10
-21 -22 -46 -27 -55 -5 -10 -9 -25 -9 -33 0 -8 -4 -15 -10 -15 -5 0 -10 -6
-10 -14 0 -8 -8 -29 -17 -48 -30 -60 -33 -68 -33 -83 0 -8 -4 -23 -9 -33 -25
-50 -52 -146 -58 -204 -3 -27 -9 -48 -13 -48 -12 0 -21 -114 -22 -265 -1 -144
11 -305 22 -305 5 0 10 -21 13 -47 8 -80 29 -183 38 -183 5 0 9 -18 9 -39 0
-22 5 -43 10 -46 6 -3 10 -23 10 -44 0 -21 3 -41 7 -45 9 -9 32 -117 40 -188
3 -27 8 -48 13 -48 4 0 11 -57 15 -127 11 -163 11 -165 1 -312 l-8 -123 -49
-49 c-27 -27 -52 -49 -55 -49 -3 0 -16 -10 -29 -22 -40 -38 -54 -48 -65 -48
-6 0 -8 -4 -5 -10 3 -6 -3 -10 -15 -10 -12 0 -28 -6 -35 -12 -36 -32 -46 -38
-65 -38 -11 0 -20 -4 -20 -10 0 -5 -4 -10 -10 -10 -18 0 -10 28 15 56 14 15
25 33 25 40 0 7 4 14 9 16 5 2 11 12 13 23 1 11 9 26 16 33 7 8 10 17 7 22 -3
5 0 10 5 12 14 4 31 69 37 138 3 30 9 59 14 65 5 5 9 32 9 61 0 29 5 54 11 56
5 2 13 22 16 46 3 23 9 42 12 42 4 0 13 15 20 34 8 18 24 41 37 51 13 10 24
26 24 36 0 11 5 19 10 19 6 0 10 29 10 66 0 64 -13 94 -39 94 -6 0 -11 7 -11
15 0 9 -9 15 -25 15 -14 0 -25 5 -25 10 0 12 -183 14 -194 3 -8 -9 -14 -10
-50 -12 -14 0 -31 -8 -40 -16 -8 -8 -28 -15 -45 -15 l-31 0 0 70 c0 39 4 70 9
70 5 0 12 20 15 45 4 24 11 47 17 50 5 4 9 24 9 46 0 21 5 39 10 39 6 0 10 20
10 45 0 25 5 45 10 45 6 0 10 22 10 48 0 26 6 54 13 60 8 9 12 53 12 144 0 96
-3 132 -12 136 -8 2 -13 21 -13 48 0 24 -4 44 -10 44 -5 0 -10 11 -10 25 0 14
-5 25 -11 25 -5 0 -8 4 -4 9 3 5 -1 16 -9 23 -7 8 -17 24 -20 36 -4 12 -12 22
-17 22 -5 0 -9 9 -9 20 0 11 -4 20 -10 20 -5 0 -10 5 -10 11 0 14 -25 39 -39
39 -6 0 -11 6 -11 14 0 17 -51 56 -74 56 -9 0 -16 5 -16 10 0 6 -10 10 -22 10
-13 1 -34 7 -48 15 -33 19 -139 19 -164 0 -11 -8 -35 -15 -53 -15 -18 0 -33
-4 -33 -10 0 -5 -9 -10 -19 -10 -11 0 -23 -4 -26 -10 -3 -5 -15 -10 -26 -10
-10 0 -19 -4 -19 -9 0 -24 -33 -17 -67 14 -21 19 -42 35 -46 35 -4 0 -18 11
-31 25 -13 14 -31 25 -40 25 -9 0 -16 5 -16 10 0 6 -7 10 -15 10 -8 0 -15 4
-15 8 0 11 -104 42 -138 42 -16 0 -33 5 -39 11 -13 13 -237 6 -303 -9 -66 -15
-124 -33 -130 -41 -3 -3 -28 -18 -57 -33 l-51 -27 -7 103 c-13 189 12 248 159
374 14 12 29 22 32 22 4 0 17 11 30 25 13 14 34 25 49 25 14 0 25 5 25 10 0 6
9 10 20 10 11 0 20 -4 20 -10 0 -5 -4 -10 -10 -10 -5 0 -10 -9 -10 -19 0 -11
-5 -21 -11 -23 -31 -10 -33 -172 -3 -203 8 -7 14 -16 14 -20 0 -10 28 -41 63
-70 41 -35 182 -49 230 -23 29 15 97 83 97 96 0 6 5 12 10 14 6 2 12 13 15 26
2 13 10 38 16 57 10 26 10 40 1 57 -6 13 -14 38 -17 56 -4 17 -11 32 -16 32
-5 0 -9 20 -9 45 0 25 5 45 11 45 5 0 7 5 4 10 -4 6 32 10 100 10 82 0 110 -4
122 -15 8 -8 18 -13 23 -10 4 3 10 -2 14 -10 3 -8 13 -15 22 -15 10 0 15 -3
12 -6 -4 -3 7 -18 23 -33 16 -16 29 -33 29 -40 0 -6 4 -11 10 -11 5 0 17 -25
25 -55 9 -30 21 -55 26 -55 5 0 9 -31 9 -70 0 -40 -4 -70 -10 -70 -5 0 -10
-11 -10 -25 0 -14 4 -25 9 -25 5 0 11 -9 14 -20 7 -29 73 -28 98 2 16 18 19
38 19 143 0 72 -4 125 -11 132 -6 6 -11 17 -13 24 -6 34 -28 89 -37 89 -5 0
-9 5 -9 10 0 6 -11 23 -25 38 -61 65 -93 92 -109 92 -8 0 -27 11 -42 25 -19
18 -38 25 -65 25 -21 0 -41 5 -44 10 -3 6 -40 10 -81 10 -43 0 -74 -4 -74 -10
0 -5 -17 -10 -37 -10 -39 -1 -73 -19 -73 -39 0 -6 -5 -11 -11 -11 -17 0 -39
-27 -39 -49 0 -12 -4 -21 -10 -21 -5 0 -10 -20 -10 -45 0 -25 5 -45 10 -45 6
0 10 -13 10 -29 0 -16 6 -44 14 -62 24 -60 2 -119 -55 -145 -39 -17 -41 -17
-72 1 -18 10 -38 25 -46 33 -17 16 -18 105 -2 110 6 2 11 12 11 23 0 10 4 19
8 19 11 0 32 60 32 91 0 14 -9 31 -20 39 -11 8 -20 20 -20 27 0 7 -7 13 -15
13 -8 0 -15 5 -15 10 0 6 -33 10 -80 10 -47 0 -80 -4 -80 -10 0 -5 -14 -10
-30 -10 -18 0 -33 -6 -36 -15 -4 -8 -15 -15 -25 -15 -10 0 -19 -4 -19 -8 0 -5
-11 -15 -25 -22 -14 -7 -25 -19 -25 -27 0 -7 -7 -13 -16 -13 -9 0 -39 -25 -67
-55 -68 -71 -77 -82 -77 -95 0 -5 -4 -10 -10 -10 -5 0 -10 -9 -10 -20 0 -11
-4 -20 -10 -20 -5 0 -10 -15 -10 -34 0 -19 -6 -36 -12 -39 -10 -3 -13 -39 -13
-137 0 -98 3 -134 13 -138 6 -2 12 -12 12 -22 0 -11 12 -24 30 -32 35 -15 36
-19 10 -38 -11 -8 -20 -20 -20 -27 0 -7 -4 -13 -10 -13 -5 0 -10 -5 -10 -10 0
-10 -8 -22 -37 -55 -7 -7 -13 -21 -13 -29 0 -9 -4 -16 -10 -16 -5 0 -10 -18
-10 -40 0 -22 -4 -40 -10 -40 -5 0 -10 -9 -10 -20 0 -17 -7 -20 -50 -20 -33 0
-50 -4 -51 -12 -3 -50 -50 175 -55 267 -3 44 -10 90 -16 101 -5 12 -8 44 -5
70 15 135 20 164 28 164 5 0 9 8 9 19 0 21 27 117 41 143 5 10 9 29 9 43 0 14
5 25 10 25 6 0 10 11 10 25 0 14 5 25 10 25 6 0 10 7 10 16 0 19 31 74 41 74
4 0 14 -7 23 -15 17 -17 146 -22 146 -5 0 5 11 12 25 16 14 3 25 10 25 15 0 5
7 9 15 9 8 0 15 4 15 9 0 5 13 22 28 38 16 15 35 43 43 61 7 17 17 32 21 32 5
0 8 9 8 20 0 11 4 20 10 20 5 0 12 11 16 24 5 21 46 66 60 66 12 0 94 109 107
143 4 12 17 17 42 17 19 0 43 4 53 9 9 5 36 15 60 22 23 7 42 18 42 26 0 7 5
13 10 13 6 0 10 -70 10 -189 0 -185 1 -190 21 -196 12 -4 24 -3 28 3 3 5 22
13 41 16 59 12 70 17 70 30 0 6 9 12 20 13 18 2 28 8 65 41 7 6 16 12 19 12
13 0 106 99 106 112 0 7 9 20 20 28 11 8 20 20 20 27 0 7 3 13 8 13 10 0 42
58 42 76 0 19 26 18 34 -1 4 -11 23 -15 81 -15 88 0 148 -23 205 -80 51 -50
92 -80 111 -80 10 0 19 -5 21 -11 3 -8 34 -12 89 -12 93 0 138 16 198 72 33
31 49 85 33 109 -12 18 -90 22 -106 6 -32 -31 -84 -54 -123 -54 -24 0 -43 5
-43 10 0 6 -9 10 -20 10 -11 0 -39 18 -61 40 -23 22 -45 40 -49 40 -4 0 -20
11 -36 25 -16 14 -41 29 -57 32 -15 3 -30 10 -33 14 -3 5 -16 9 -29 9 -13 0
-27 5 -30 10 -3 6 -26 10 -50 10 -24 0 -47 -4 -50 -10 -14 -23 -22 -7 -13 28
6 20 12 54 15 75 3 20 9 37 13 37 4 0 10 14 13 30 11 57 14 64 25 68 7 2 12
-2 12 -8 0 -25 29 -39 84 -41 31 -1 65 -8 74 -15 9 -8 28 -14 42 -14 14 0 32
-9 40 -20 8 -11 18 -20 23 -20 4 0 20 -11 35 -25 36 -33 162 -95 195 -95 14 0
29 -4 32 -10 3 -5 19 -10 35 -10 16 0 32 5 35 10 3 6 22 10 41 10 19 0 34 4
34 9 0 5 14 12 30 16 17 4 30 11 30 16 0 5 5 9 11 9 14 0 57 48 65 73 3 9 10
17 15 17 16 0 10 59 -8 80 -19 22 -83 28 -83 9 0 -15 -81 -89 -97 -89 -7 0
-13 -4 -13 -10 0 -6 -27 -10 -60 -10 -33 0 -60 4 -60 10 0 6 -9 10 -19 10 -11
0 -26 7 -35 15 -8 8 -19 15 -25 15 -6 0 -11 5 -11 10 0 6 -7 10 -16 10 -8 0
-30 16 -48 35 -19 19 -41 35 -50 35 -10 0 -14 5 -11 10 4 6 -6 10 -24 10 -16
0 -31 5 -33 11 -4 12 -69 28 -113 29 -51 0 -101 -19 -113 -43 -9 -19 -11 -16
-11 26 l-1 47 79 0 c78 0 141 14 141 31 0 5 11 9 25 9 14 0 25 3 25 8 0 4 12
15 27 24 24 14 31 15 53 3 14 -7 56 -18 93 -25z m-1127 -77 c8 -3 14 -18 14
-34 0 -16 4 -29 9 -29 9 0 12 -16 27 -142 8 -67 0 -108 -21 -108 -8 0 -15 -4
-15 -9 0 -10 -78 -41 -103 -41 -9 0 -17 -5 -17 -11 0 -5 -18 0 -40 12 -22 13
-40 27 -40 31 0 5 -13 23 -29 40 -26 28 -28 34 -18 57 7 14 24 39 39 55 15 15
30 37 33 47 4 11 10 19 14 19 4 0 17 18 30 40 12 22 26 40 32 40 5 0 9 5 9 11
0 5 12 23 28 38 25 26 27 27 30 9 2 -11 10 -22 18 -25z m1856 -406 c2 -32 1
-60 -4 -63 -4 -3 -8 5 -8 18 0 12 -7 41 -16 65 -9 23 -13 50 -10 59 12 31 33
-14 38 -79z m-2162 9 c0 -6 9 -18 20 -26 21 -15 28 -70 10 -70 -5 0 -10 -5
-10 -11 0 -22 -30 -39 -69 -39 -23 0 -41 4 -41 8 0 5 -10 14 -22 20 -13 6 -17
11 -10 11 6 1 12 6 12 11 0 10 8 22 38 55 6 7 12 19 12 25 0 19 24 37 42 32
10 -2 18 -10 18 -16z m2030 -115 c0 -17 5 -31 10 -31 6 0 10 -9 10 -20 0 -10
5 -31 12 -45 9 -21 9 -31 0 -46 -7 -10 -12 -24 -12 -30 0 -14 -25 -39 -39 -39
-6 0 -11 -4 -11 -10 0 -5 -6 -10 -12 -10 -14 0 -48 100 -48 138 0 12 -4 22
-10 22 -5 0 -10 21 -10 48 0 44 3 49 35 66 19 11 35 24 35 29 0 5 9 -2 20 -16
11 -14 20 -39 20 -56z m160 -1 c0 -16 -4 -30 -10 -30 -5 0 -10 14 -10 30 0 17
5 30 10 30 6 0 10 -13 10 -30z m-2312 -155 c6 -5 -42 -100 -63 -124 -39 -46
-47 -51 -81 -51 -37 0 -56 22 -35 43 6 6 11 19 11 29 0 10 5 18 10 18 6 0 10
9 10 21 0 11 4 18 9 14 5 -3 12 4 16 15 3 11 11 20 16 20 5 0 9 7 9 15 0 9 6
22 12 29 10 11 19 10 48 -7 19 -10 36 -20 38 -22z m1942 -22 c0 -13 4 -31 9
-41 16 -29 41 -119 41 -146 0 -35 -10 -56 -26 -56 -8 0 -14 -4 -14 -10 0 -5
-12 -10 -26 -10 -14 0 -23 -4 -19 -10 3 -5 -1 -10 -9 -10 -14 0 -16 21 -16
150 0 128 3 153 17 170 17 19 19 19 30 3 7 -9 13 -27 13 -40z m-1392 -918 c32
-9 65 -20 74 -25 10 -6 25 -10 33 -10 8 0 15 -4 15 -9 0 -5 9 -12 19 -16 25
-8 89 -70 121 -118 14 -20 29 -37 33 -37 5 0 6 -4 2 -9 -3 -5 2 -16 11 -25 8
-9 16 -25 17 -36 1 -11 4 -20 8 -20 4 0 10 -16 13 -35 4 -19 10 -35 14 -35 5
0 9 -17 10 -37 1 -21 7 -50 13 -64 20 -50 -2 -496 -30 -619 -13 -56 -10 -318
4 -328 6 -4 11 -14 13 -22 5 -30 30 -73 62 -108 14 -15 14 -20 0 -44 -8 -16
-19 -28 -24 -28 -5 0 -16 -8 -25 -18 -23 -25 -67 -52 -86 -52 -8 0 -15 -5 -15
-11 0 -6 -22 -9 -55 -8 -30 1 -55 6 -55 11 0 4 -13 8 -28 8 -28 0 -126 31
-139 43 -3 4 -12 7 -20 7 -18 0 -113 98 -113 116 0 8 -4 14 -8 14 -17 0 -31
70 -37 193 l-7 127 -44 0 c-24 0 -44 -4 -44 -10 0 -5 -16 -10 -35 -10 -19 0
-35 -4 -35 -10 0 -5 -6 -10 -13 -10 -7 0 -25 -12 -41 -26 l-28 -27 7 44 c9 53
9 70 -4 181 -6 48 -15 96 -21 107 -5 11 -10 33 -10 50 0 16 -4 33 -10 36 -5 3
-10 15 -10 26 0 10 -4 19 -10 19 -5 0 -10 19 -10 43 0 57 -28 201 -40 205 -6
2 -10 17 -10 32 0 16 -4 32 -10 35 -5 3 -10 13 -10 22 0 9 -11 26 -25 39 -14
13 -25 28 -25 34 0 6 -4 8 -10 5 -5 -3 -10 1 -10 9 0 9 -11 18 -25 22 -21 5
-24 11 -19 28 4 11 11 23 15 24 5 2 9 24 9 48 0 24 5 44 10 44 6 0 10 7 10 15
0 20 145 165 165 165 8 0 15 5 15 10 0 6 9 10 19 10 11 0 21 5 23 10 2 6 32
15 68 21 35 5 66 12 69 15 11 11 218 3 269 -11z m743 -127 c9 -10 20 -18 23
-18 9 0 36 -26 36 -35 0 -3 11 -17 25 -31 14 -14 25 -31 25 -39 0 -8 5 -15 10
-15 6 0 10 -9 10 -20 0 -11 5 -20 10 -20 6 0 10 -15 10 -34 0 -19 6 -36 13
-39 17 -5 16 -312 -1 -329 -7 -7 -12 -31 -12 -55 0 -24 -4 -43 -10 -43 -5 0
-10 -20 -10 -45 0 -25 -3 -45 -8 -45 -17 0 -52 -176 -59 -294 -4 -81 -16 -116
-38 -116 -3 0 -17 -10 -30 -22 -36 -34 -53 -48 -60 -48 -4 0 -31 -25 -62 -56
-49 -51 -57 -55 -76 -45 -23 12 -47 54 -47 81 0 9 -5 21 -11 27 -11 11 -7 143
11 303 15 140 31 357 31 420 0 128 -25 302 -49 347 -7 12 -12 29 -12 38 0 9
-9 25 -20 37 -34 37 -24 62 38 89 17 7 32 17 32 21 0 10 93 15 160 9 37 -3 60
-10 71 -23z m-1489 -348 c17 -16 35 -30 39 -30 5 0 9 -7 9 -15 0 -8 3 -15 8
-15 9 0 32 -49 32 -70 0 -9 4 -20 9 -26 5 -5 11 -35 15 -66 l6 -58 -70 0 -70
0 0 35 c0 19 -4 35 -10 35 -5 0 -10 14 -10 30 0 17 -4 30 -10 30 -5 0 -10 11
-10 24 0 13 -7 29 -15 36 -8 7 -15 25 -15 41 0 16 -4 29 -10 29 -5 0 -10 11
-10 25 0 23 4 25 40 25 31 0 47 -7 72 -30z m144 -420 c8 0 14 -7 14 -15 0 -8
4 -15 9 -15 5 0 12 -26 15 -57 2 -32 10 -95 17 -140 10 -71 10 -84 -4 -97 -9
-9 -20 -16 -25 -16 -6 0 -12 -7 -16 -15 -3 -8 -12 -15 -21 -15 -11 0 -15 11
-15 44 0 25 -4 48 -10 51 -5 3 -10 26 -10 50 0 24 -4 46 -9 49 -5 4 -12 29
-16 56 -4 28 -11 50 -16 50 -5 0 -9 15 -9 34 0 30 4 35 28 39 15 2 33 2 40 0
8 -1 20 -3 28 -3z m1847 -382 c12 -7 24 -14 26 -16 2 -1 -10 -20 -27 -41 -18
-22 -32 -44 -32 -50 0 -5 -4 -11 -8 -13 -16 -7 -62 -131 -62 -168 0 -21 -4
-40 -9 -42 -5 -1 -11 -23 -14 -48 -7 -66 -28 -163 -36 -175 -4 -5 -13 -29 -21
-52 -7 -24 -17 -43 -22 -43 -4 0 -8 -9 -8 -20 0 -11 -4 -20 -10 -20 -5 0 -10
-7 -10 -15 0 -8 -4 -15 -9 -15 -5 0 -13 -9 -16 -20 -3 -11 -13 -20 -22 -20 -8
0 -17 -9 -20 -20 -3 -10 -15 -22 -27 -26 -11 -4 -28 -15 -37 -25 -9 -11 -26
-19 -38 -19 -11 0 -21 -5 -21 -12 0 -9 -3 -9 -12 0 -7 7 -32 12 -56 12 -26 0
-41 4 -37 10 4 6 -15 10 -50 10 -35 0 -54 -4 -50 -10 4 -6 -12 -10 -39 -10
-25 0 -46 5 -46 10 0 6 -11 10 -25 10 -14 0 -25 5 -25 10 0 6 -43 10 -110 10
-67 0 -110 -4 -110 -10 0 -5 -11 -10 -25 -10 -14 0 -25 -4 -25 -10 0 -5 -20
-10 -45 -10 -25 0 -45 5 -45 11 0 6 -34 9 -97 8 l-98 -2 -6 39 c-4 21 -12 75
-19 119 -7 44 -16 85 -20 90 -12 17 -13 115 -1 115 11 0 51 -20 61 -30 3 -3
32 -13 65 -24 33 -10 70 -22 83 -27 32 -13 262 -12 262 1 0 6 7 10 16 10 19 0
59 30 124 93 28 26 52 47 55 47 3 0 27 21 53 48 77 75 140 132 148 132 4 0 22
16 41 35 19 19 38 35 44 35 5 0 21 11 35 25 14 14 31 25 39 25 8 0 15 5 15 10
0 6 9 10 20 10 11 0 20 5 20 10 0 6 11 10 25 10 14 0 25 5 25 10 0 6 9 10 19
10 11 0 26 7 35 15 9 9 33 15 65 15 27 0 53 5 56 10 8 14 31 13 58 -2z m-1778
-130 c10 -21 12 -34 5 -36 -5 -2 -10 -10 -10 -19 0 -8 -6 -29 -14 -46 -8 -18
-17 -43 -19 -57 l-3 -25 -13 30 c-8 17 -16 62 -18 102 l-6 71 29 5 c16 2 30 5
31 6 1 0 9 -14 18 -31z m229 0 c3 -18 7 -73 10 -121 3 -49 9 -94 15 -100 5 -7
12 -52 15 -102 10 -148 17 -209 27 -219 5 -6 9 -31 9 -56 0 -25 5 -61 11 -80
6 -19 13 -53 16 -75 3 -22 9 -41 14 -43 12 -5 11 -82 -1 -82 -5 0 -10 -9 -10
-20 0 -32 -29 -82 -42 -73 -42 25 -156 138 -188 186 -14 20 -28 37 -32 37 -5
0 -8 6 -8 14 0 8 -5 16 -11 18 -14 5 -13 348 1 362 6 6 10 31 10 57 0 26 5 51
10 54 6 3 10 19 10 35 0 16 4 31 9 34 5 4 17 31 26 61 10 30 22 55 26 55 5 0
9 7 9 15 0 16 48 75 61 75 5 0 10 -15 13 -32z m2006 -612 c-5 -5 -10 -27 -10
-47 0 -21 -3 -39 -7 -41 -11 -4 -43 -75 -43 -93 0 -8 -4 -15 -10 -15 -5 0 -10
-11 -10 -25 0 -14 -4 -25 -10 -25 -5 0 -10 -9 -10 -19 0 -10 -6 -21 -12 -24
-15 -5 -58 -82 -58 -102 0 -7 -4 -15 -8 -17 -5 -1 -27 -28 -49 -58 -22 -30
-50 -65 -62 -77 -12 -12 -21 -25 -21 -28 0 -4 -6 -13 -14 -21 -17 -16 -66 -19
-66 -4 0 6 -9 10 -21 10 -11 0 -27 6 -35 14 -7 8 -18 16 -23 18 -5 2 -5 55 -1
125 4 67 3 148 -1 180 -9 63 -4 93 15 93 18 0 66 24 66 33 0 4 9 7 20 7 11 0
20 7 20 15 0 8 6 15 13 15 7 0 23 9 35 20 12 11 24 20 27 20 8 0 225 220 225
228 0 3 12 19 28 35 l27 28 3 -117 c2 -71 -1 -121 -8 -128z m-1272 -206 c22 0
22 -1 22 -165 l0 -165 -111 0 -112 0 5 150 c4 113 9 153 21 164 14 14 92 26
132 20 11 -2 30 -4 43 -4z m-338 -165 c0 -138 -1 -145 -20 -145 -11 0 -20 4
-20 9 0 5 -10 11 -22 14 -31 7 -88 30 -112 44 -18 10 -19 14 -7 54 7 24 17 52
22 61 5 10 9 27 9 37 0 11 5 23 10 26 6 3 10 15 10 26 0 17 7 19 65 19 l65 0
0 -145z m648 133 c8 -8 12 -55 12 -145 l0 -133 -65 -1 c-36 -1 -71 -2 -77 -3
-10 -1 -13 35 -13 146 l0 148 66 0 c37 0 70 -5 77 -12z m356 -23 c10 -27 -6
-277 -18 -265 -5 5 -47 10 -93 10 l-83 0 0 99 c0 56 4 103 10 106 6 3 10 19
10 36 l0 29 84 0 c65 0 85 -3 90 -15z"/>
<path d="M6120 8253 c-32 -22 -41 -32 -63 -65 -17 -27 -24 -108 -9 -108 4 0
16 -16 26 -35 16 -29 25 -35 53 -35 19 0 33 -5 33 -12 0 -9 3 -9 12 0 7 7 27
12 45 12 40 0 83 40 83 76 0 13 4 24 8 24 4 0 8 9 9 20 1 11 -2 20 -8 20 -5 0
-9 10 -9 23 -1 28 -27 60 -68 81 -40 21 -81 20 -112 -1z"/>
<path d="M8458 7941 c-16 -16 -28 -37 -28 -48 0 -10 -5 -24 -11 -30 -16 -16
12 -85 48 -120 33 -34 120 -45 146 -18 9 9 17 13 17 9 0 -4 9 2 20 14 11 12
20 26 20 32 0 5 5 10 10 10 6 0 10 25 10 55 0 30 -4 55 -10 55 -5 0 -10 7 -10
15 0 9 -11 21 -25 27 -14 6 -25 15 -25 20 0 4 -30 8 -67 7 -61 0 -71 -4 -95
-28z"/>
<path d="M7862 4835 c-9 -11 -24 -13 -53 -9 -33 6 -43 3 -59 -14 -11 -12 -20
-30 -20 -42 0 -11 -4 -20 -10 -20 -5 0 -10 -18 -10 -40 0 -27 -5 -43 -15 -46
-10 -4 -15 -20 -15 -49 0 -24 -4 -47 -10 -50 -6 -4 -10 -60 -10 -136 0 -79 4
-129 10 -129 6 0 10 -7 10 -15 0 -8 7 -15 15 -15 8 0 15 -4 15 -10 0 -5 8 -10
19 -10 14 0 20 -10 25 -47 4 -27 9 -67 13 -90 3 -24 10 -43 15 -43 5 0 16 -7
24 -15 21 -20 36 -19 64 5 22 19 22 23 21 224 -2 165 1 211 13 241 9 21 16 55
16 76 0 22 5 39 10 39 6 0 10 15 10 34 0 19 5 38 10 41 17 10 12 93 -7 115
-20 23 -62 26 -81 5z"/>
<path d="M2650 8800 c-474 -92 -800 -401 -800 -759 0 -73 10 -91 50 -91 38 0
50 18 50 75 0 183 89 346 261 477 159 122 346 191 552 206 68 5 122 14 131 22
20 16 20 54 0 74 -21 21 -120 20 -244 -4z"/>
<path d="M2730 8435 c-392 -66 -665 -309 -846 -753 -47 -113 -57 -149 -50
-177 12 -49 86 -36 99 17 11 48 40 117 102 243 118 238 265 396 455 488 99 48
238 86 318 88 80 2 106 11 116 41 8 22 6 32 -9 48 -21 23 -67 25 -185 5z"/>
<path d="M3831 8299 c-18 -20 -21 -34 -21 -121 0 -54 4 -98 9 -98 5 0 12 -28
14 -62 8 -102 23 -157 57 -220 6 -10 10 -27 10 -38 0 -11 5 -20 10 -20 6 0 10
-9 10 -21 0 -11 7 -27 15 -36 8 -8 13 -19 10 -24 -4 -5 1 -9 9 -9 10 0 16 -9
16 -25 0 -14 5 -25 11 -25 5 0 8 -4 4 -9 -3 -5 2 -16 10 -24 8 -9 15 -20 15
-26 0 -5 11 -21 25 -35 14 -14 25 -30 25 -36 0 -5 5 -10 10 -10 6 0 10 -7 10
-16 0 -9 16 -31 35 -50 19 -18 35 -39 35 -46 0 -16 50 -48 74 -48 9 0 19 7 22
15 4 8 10 12 15 9 9 -5 13 21 9 65 -1 13 -13 36 -26 50 -13 14 -24 30 -24 36
0 6 -9 17 -20 25 -11 8 -20 20 -20 28 0 7 -11 23 -25 36 -14 13 -25 33 -25 45
0 11 -4 21 -9 21 -5 0 -15 16 -22 35 -7 19 -16 35 -20 35 -3 0 -18 30 -33 68
-15 37 -31 74 -35 82 -10 20 -37 115 -50 173 -6 26 -11 95 -11 153 0 118 -6
131 -64 141 -26 4 -38 0 -55 -18z"/>
<path d="M2703 8073 c-18 -9 -33 -20 -33 -25 0 -4 -9 -8 -19 -8 -21 0 -141
-110 -141 -129 0 -6 -4 -11 -10 -11 -5 0 -10 -9 -10 -19 0 -11 -5 -21 -11 -23
-5 -2 -13 -22 -16 -46 -3 -23 -10 -42 -14 -42 -5 0 -9 -13 -9 -30 0 -16 -4
-30 -10 -30 -5 0 -10 -9 -10 -20 0 -11 5 -20 11 -20 6 0 9 -20 7 -52 -3 -52
-3 -53 -46 -68 -66 -25 -141 -94 -168 -157 -19 -43 -24 -71 -24 -141 0 -96 7
-112 51 -112 37 0 44 13 44 95 1 96 29 155 90 194 53 34 71 32 80 -10 4 -16
11 -29 16 -29 5 0 9 -14 9 -32 0 -17 3 -28 7 -25 10 11 33 -13 33 -34 0 -11 5
-19 10 -19 6 0 10 -16 10 -35 0 -19 5 -35 11 -35 11 0 39 -24 39 -34 0 -3 16
-30 35 -60 19 -30 35 -62 35 -71 0 -8 4 -15 9 -15 5 0 11 -12 14 -27 3 -16 10
-46 16 -69 6 -22 15 -117 20 -210 6 -97 15 -170 21 -172 5 -2 10 -12 10 -22 0
-10 5 -22 10 -25 6 -3 10 -15 10 -26 0 -11 7 -19 18 -19 26 -1 52 -25 52 -49
0 -11 5 -21 10 -21 6 0 10 -6 10 -14 0 -28 46 -96 65 -96 3 0 21 -11 39 -25
30 -23 42 -25 130 -25 87 0 100 3 138 27 45 28 68 48 68 58 0 4 7 13 15 21 8
9 15 24 15 35 0 10 5 19 10 19 18 0 10 29 -15 55 -14 14 -36 25 -49 25 -28 0
-62 -28 -67 -55 -2 -11 -14 -24 -27 -30 -12 -5 -22 -13 -22 -17 0 -13 -97 -9
-127 4 -15 7 -39 23 -52 35 -14 12 -28 20 -32 18 -4 -3 -20 20 -35 50 -16 30
-32 55 -36 55 -5 0 -8 11 -8 24 0 14 -4 28 -10 31 -6 4 -10 70 -10 165 0 87
-4 161 -9 164 -4 3 -11 33 -15 66 -4 33 -11 60 -16 60 -6 0 -10 9 -10 20 0 11
-4 20 -10 20 -5 0 -10 10 -10 22 0 18 -43 104 -59 118 -3 3 -12 17 -20 33 -8
15 -18 27 -23 27 -4 0 -8 6 -8 13 0 8 -11 27 -25 43 -14 16 -25 37 -25 47 0 9
-4 17 -10 17 -5 0 -10 9 -10 19 0 11 -4 22 -9 25 -5 3 -16 28 -25 55 -18 56
-23 241 -6 241 6 0 10 8 10 18 0 9 11 34 25 54 14 20 25 40 25 44 0 11 64 64
78 64 6 0 12 5 12 10 0 6 9 10 20 10 11 0 20 5 20 10 0 6 33 10 80 10 47 0 80
-4 80 -10 0 -5 7 -10 15 -10 8 0 15 -4 15 -10 0 -5 9 -10 20 -10 11 0 20 -4
20 -8 0 -5 16 -17 35 -28 19 -10 35 -23 35 -29 0 -5 14 -26 30 -45 17 -19 33
-43 36 -52 3 -10 10 -18 15 -18 5 0 9 -9 9 -20 0 -11 5 -20 10 -20 6 0 10 -9
10 -19 0 -11 5 -23 10 -26 6 -3 10 -14 10 -24 0 -10 7 -24 15 -31 8 -7 15 -21
15 -31 0 -11 5 -19 10 -19 6 0 10 -13 10 -30 0 -16 5 -30 10 -30 6 0 10 -9 10
-19 0 -20 67 -157 87 -178 6 -7 16 -13 22 -13 6 0 11 -7 11 -16 0 -8 5 -12 10
-9 6 3 10 0 10 -8 0 -7 11 -20 25 -27 14 -7 25 -17 25 -22 0 -4 14 -8 30 -8
17 0 30 -4 30 -10 0 -15 62 -12 83 4 27 21 20 88 -10 101 -13 5 -23 13 -23 17
0 5 -8 8 -18 8 -21 0 -92 60 -92 78 0 6 -4 12 -10 12 -5 0 -10 6 -10 14 0 18
-32 76 -42 76 -5 0 -8 16 -8 35 0 19 -4 35 -10 35 -5 0 -10 8 -10 18 0 10 -5
23 -10 28 -6 6 -13 21 -15 35 -3 13 -9 25 -15 27 -5 2 -10 15 -10 28 0 13 -4
24 -10 24 -5 0 -10 6 -10 13 0 21 -30 77 -41 77 -5 0 -9 9 -9 20 0 11 -4 20
-10 20 -5 0 -10 5 -10 10 0 6 -10 21 -22 34 -13 12 -32 34 -43 49 -11 15 -23
27 -26 27 -3 0 -23 16 -43 35 -21 19 -46 35 -57 35 -10 0 -19 4 -19 9 0 38
-240 57 -307 24z"/>
<path d="M2380 7947 c-56 -44 -146 -155 -194 -238 -77 -134 -120 -307 -114
-456 5 -112 14 -133 58 -133 44 0 53 19 45 104 -20 210 74 449 241 613 46 45
84 91 84 101 0 22 -30 52 -51 52 -8 0 -39 -19 -69 -43z"/>
<path d="M2728 7680 c-21 -21 -38 -48 -38 -59 0 -12 -3 -21 -8 -21 -13 0 -32
-78 -32 -130 0 -27 5 -50 10 -50 6 0 10 -11 10 -25 0 -14 5 -25 10 -25 6 0 10
-9 10 -20 0 -11 7 -20 15 -20 8 0 15 -4 15 -9 0 -17 33 -21 50 -6 9 8 22 15
28 15 15 0 16 86 2 95 -5 3 -10 33 -10 66 0 81 26 109 100 109 27 0 50 -4 50
-10 0 -5 7 -10 15 -10 8 0 15 -4 15 -9 0 -5 9 -13 20 -16 11 -3 20 -15 20 -26
0 -10 5 -19 10 -19 6 0 10 -8 10 -17 0 -14 -7 -10 -28 15 -15 17 -35 32 -45
32 -9 0 -17 5 -17 10 0 6 -16 10 -35 10 -19 0 -35 -4 -35 -9 0 -5 -9 -13 -20
-16 -14 -4 -20 -15 -20 -36 0 -16 5 -29 10 -29 6 0 10 -7 10 -15 0 -8 7 -15
15 -15 8 0 15 -4 15 -10 0 -5 9 -10 20 -10 15 0 20 -7 20 -24 0 -14 5 -28 10
-31 6 -3 10 -28 10 -55 0 -27 -4 -52 -10 -55 -5 -3 -10 -24 -10 -46 0 -21 -4
-39 -8 -39 -13 0 -42 -131 -42 -186 0 -27 5 -67 11 -89 5 -22 12 -49 14 -60 3
-11 9 -21 15 -23 5 -2 10 -15 10 -28 0 -13 4 -24 9 -24 5 0 12 -8 15 -17 3
-10 16 -30 29 -45 13 -15 32 -38 43 -52 10 -14 24 -26 31 -26 7 0 13 -4 13
-10 0 -5 7 -10 14 -10 8 0 27 -11 42 -25 15 -14 37 -25 48 -25 12 0 28 -6 35
-12 11 -10 14 -10 18 0 3 6 14 12 26 12 31 0 49 42 34 75 -7 14 -18 25 -24 25
-7 0 -13 5 -13 10 0 6 -11 10 -24 10 -27 0 -140 105 -151 140 -4 11 -11 20
-16 20 -5 0 -9 8 -9 18 0 10 -6 24 -12 30 -17 17 -17 190 -1 223 7 13 14 33
15 44 2 11 7 -34 11 -100 4 -66 12 -121 17 -123 6 -2 10 -19 10 -38 0 -19 5
-34 10 -34 6 0 10 -6 10 -13 0 -7 16 -30 35 -50 19 -20 35 -40 35 -43 0 -10
28 -34 39 -34 6 0 11 -4 11 -10 0 -5 14 -10 30 -10 17 0 30 -4 30 -10 0 -6 35
-10 85 -10 50 0 85 4 85 10 0 6 9 10 20 10 12 0 22 9 26 24 8 34 1 71 -14 69
-6 -2 -12 4 -12 12 0 19 -61 21 -90 3 -16 -10 -24 -10 -40 0 -11 6 -28 12 -37
12 -23 0 -83 65 -83 90 0 10 -4 20 -9 22 -6 2 -11 22 -12 46 -2 23 -7 42 -12
42 -8 0 -4 213 7 330 6 67 -25 210 -51 236 -7 7 -13 15 -13 19 0 3 -11 17 -25
31 -14 14 -25 29 -25 34 0 6 -9 10 -19 10 -10 0 -21 7 -25 15 -3 8 -15 15 -26
15 -11 0 -20 5 -20 10 0 6 -44 10 -112 9 l-113 0 -37 -39z m319 -232 c-3 -8
-6 -5 -6 6 -1 11 2 17 5 13 3 -3 4 -12 1 -19z"/>
<path d="M7093 7416 c-18 -8 -33 -12 -33 -9 0 3 -9 -2 -20 -12 -11 -10 -20
-24 -20 -32 0 -7 -4 -13 -10 -13 -14 0 -12 -79 3 -94 6 -7 21 -25 32 -39 18
-25 25 -27 96 -27 81 0 116 12 149 50 l20 23 50 -52 c27 -28 50 -54 50 -57 0
-9 49 -54 60 -54 5 0 10 -5 10 -11 0 -21 38 -46 159 -103 41 -19 71 -26 115
-26 70 1 96 15 97 56 1 17 3 22 6 12 2 -10 11 -18 18 -18 7 0 15 -5 17 -11 5
-14 106 -17 116 -4 4 6 21 12 37 13 17 2 32 8 33 13 2 5 12 9 23 9 10 0 19 5
19 10 0 6 9 10 20 10 21 0 55 16 78 38 19 17 29 15 35 -9 3 -11 15 -23 26 -26
12 -3 21 -9 21 -14 0 -5 9 -9 20 -9 11 0 20 -4 20 -10 0 -5 11 -10 24 -10 14
0 28 5 31 10 3 6 19 10 36 10 16 0 29 5 29 10 0 6 11 10 25 10 16 0 25 6 25
15 0 8 5 15 10 15 6 0 10 25 10 56 0 54 -14 84 -39 84 -6 0 -11 4 -11 8 0 17
-52 32 -106 32 -62 0 -144 -18 -144 -31 0 -5 -12 -9 -26 -9 -14 0 -38 -8 -52
-19 -15 -10 -39 -21 -54 -25 -16 -3 -28 -11 -28 -16 0 -6 -9 -10 -20 -10 -11
0 -20 -4 -20 -10 0 -5 -22 -10 -49 -10 -67 0 -110 -17 -117 -46 -6 -23 -34
-35 -34 -14 0 6 -21 10 -46 10 -27 0 -51 6 -60 15 -9 8 -24 15 -34 15 -10 0
-22 5 -25 10 -3 6 -15 10 -26 10 -10 0 -19 5 -19 10 0 6 -6 10 -13 10 -7 0
-20 11 -30 24 -36 47 -194 206 -205 206 -7 0 -12 5 -12 10 0 6 -13 10 -29 10
-16 0 -31 5 -33 12 -6 18 -166 22 -205 4z"/>
<path d="M2424 7309 c-18 -5 -46 -25 -63 -44 -26 -30 -31 -44 -31 -86 0 -43 3
-51 25 -61 24 -11 23 -12 -31 -34 -89 -36 -131 -69 -204 -161 -25 -31 3 -93
42 -93 9 0 33 21 54 48 21 26 45 53 54 60 34 28 109 60 170 71 36 7 75 14 87
17 26 5 41 49 26 73 -8 13 -27 16 -88 15 -53 -1 -73 1 -62 8 10 5 17 20 17 33
0 29 32 65 58 65 42 0 60 70 23 90 -23 12 -34 12 -77 -1z"/>
<path d="M2453 6860 c-175 -90 -300 -215 -323 -324 -12 -61 -4 -90 30 -101 34
-11 58 11 66 60 15 100 101 180 333 307 35 19 42 56 15 82 -22 23 -33 21 -121
-24z"/>
<path d="M7645 6841 c-3 -6 -40 -11 -86 -11 -46 0 -79 -4 -79 -10 0 -6 -30
-10 -70 -10 -40 0 -70 -4 -70 -10 0 -5 -14 -10 -30 -10 -18 0 -33 -6 -36 -15
-5 -11 -22 -15 -70 -15 -36 0 -64 -4 -64 -10 0 -5 -16 -10 -35 -10 -19 0 -35
-4 -35 -10 0 -5 -25 -10 -55 -10 -42 0 -55 -3 -55 -15 0 -9 -9 -15 -24 -15
-14 0 -28 -4 -31 -10 -3 -5 -22 -10 -41 -10 -23 0 -44 -8 -62 -25 -15 -14 -32
-25 -39 -25 -7 0 -13 -4 -13 -8 0 -5 -12 -15 -27 -23 -16 -8 -36 -23 -45 -34
-21 -24 -23 -81 -4 -101 16 -16 76 -19 76 -4 0 6 8 10 19 10 10 0 27 11 37 25
10 14 24 25 31 25 7 0 13 5 13 10 0 6 9 10 20 10 11 0 20 5 20 10 0 6 13 10
29 10 17 0 33 5 36 10 3 6 14 10 24 10 10 0 24 7 31 15 8 10 30 15 61 15 27 0
49 5 49 10 0 6 18 10 39 10 22 0 43 5 46 10 3 6 25 10 48 10 23 1 53 7 67 15
14 8 40 14 58 15 17 0 32 5 32 10 0 6 30 10 70 10 40 0 70 4 70 10 0 6 127 10
361 10 237 0 358 -3 354 -10 -4 -6 27 -10 84 -10 54 0 91 -4 91 -10 0 -15 80
-12 96 4 16 16 19 76 4 76 -5 0 -10 7 -10 15 0 8 -9 15 -19 15 -11 0 -23 5
-26 10 -3 6 -26 10 -51 10 -24 0 -44 4 -44 9 0 5 -105 12 -232 15 -128 4 -294
9 -369 12 -93 4 -139 2 -144 -5z"/>
<path d="M2470 6534 c-255 -107 -346 -177 -406 -313 -29 -65 -29 -73 -5 -95
36 -33 63 -17 102 59 59 114 125 162 344 251 60 25 116 50 122 56 31 25 4 88
-37 87 -8 0 -62 -21 -120 -45z"/>
<path d="M9520 6286 c-27 -33 -7 -58 94 -118 259 -154 402 -329 436 -533 7
-39 14 -80 16 -91 5 -28 42 -37 71 -18 19 12 23 24 23 62 0 55 -21 142 -52
215 -69 164 -258 353 -470 471 -52 29 -99 34 -118 12z"/>
<path d="M2415 6235 c-67 -17 -118 -40 -183 -82 -49 -31 -72 -50 -162 -135
-53 -50 -152 -186 -165 -228 -9 -27 19 -60 51 -60 18 0 36 18 75 78 96 143
245 271 369 316 25 9 76 19 115 24 60 6 71 10 82 32 10 20 10 29 -1 45 -17 25
-105 30 -181 10z"/>
<path d="M2553 5990 c-142 -51 -312 -168 -446 -309 -96 -102 -217 -275 -217
-312 0 -32 17 -49 50 -49 22 0 35 13 75 78 139 221 365 418 573 497 71 27 92
64 56 99 -19 20 -27 20 -91 -4z"/>
<path d="M9622 5828 c-7 -7 -12 -24 -12 -40 0 -22 9 -32 48 -54 131 -76 260
-193 327 -298 69 -108 101 -202 111 -329 6 -68 10 -80 29 -89 16 -7 29 -7 44
1 19 11 21 20 21 104 -1 230 -144 468 -385 638 -111 77 -156 94 -183 67z"/>
<path d="M2626 5705 c-38 -19 -77 -42 -86 -50 -9 -8 -20 -15 -23 -15 -4 0 -31
-16 -60 -36 -196 -137 -326 -279 -425 -464 -84 -156 -114 -278 -74 -299 36
-19 60 -2 82 58 11 31 27 74 35 96 21 57 97 188 146 251 95 123 290 284 429
354 74 37 100 59 100 85 0 20 -32 56 -50 55 -3 -1 -36 -16 -74 -35z"/>
<path d="M2613 5381 c-227 -196 -369 -414 -469 -720 -42 -127 -60 -232 -45
-259 22 -41 91 -26 91 19 0 67 78 305 142 434 87 175 252 383 380 479 43 32
54 57 38 86 -20 38 -63 26 -137 -39z"/>
<path d="M9561 5358 c-16 -42 1 -59 80 -82 41 -12 101 -38 134 -58 165 -101
284 -317 285 -516 0 -75 12 -102 45 -102 49 0 58 24 52 139 -5 111 -22 176
-74 281 -97 196 -308 360 -464 360 -42 0 -51 -3 -58 -22z"/>
<path d="M2732 4993 c-165 -176 -284 -433 -387 -840 -21 -80 -24 -106 -15
-122 12 -24 61 -29 78 -8 5 6 27 73 47 147 113 405 192 573 358 757 52 59 56
74 27 103 -31 31 -50 24 -108 -37z"/>
<path d="M9502 5024 c-16 -11 -22 -24 -20 -42 3 -28 18 -38 102 -69 68 -25
145 -102 184 -185 52 -110 72 -236 72 -452 0 -180 1 -185 22 -200 30 -21 44
-20 68 4 17 17 20 33 20 121 0 140 -18 329 -40 426 -47 200 -155 335 -316 392
-72 25 -64 25 -92 5z"/>
<path d="M2908 4713 c-52 -56 -109 -162 -163 -303 -25 -65 -67 -231 -101 -400
-9 -47 -29 -132 -44 -190 -30 -110 -28 -133 11 -145 32 -10 61 16 75 71 16 58
53 219 84 359 53 247 105 384 193 512 49 71 50 72 33 97 -22 34 -56 33 -88 -1z"/>
<path d="M9381 4506 c-7 -8 -11 -27 -9 -43 2 -23 14 -33 64 -59 131 -64 205
-158 256 -319 18 -57 22 -95 22 -210 1 -153 -9 -209 -56 -318 -32 -76 -30
-104 9 -113 39 -10 55 5 90 87 44 102 63 204 63 336 0 295 -116 519 -322 622
-67 34 -99 38 -117 17z"/>
<path d="M3159 4403 c-13 -16 -34 -41 -45 -58 -11 -16 -36 -52 -56 -80 -186
-266 -307 -637 -308 -942 0 -97 32 -131 80 -83 17 17 20 33 20 98 0 120 39
326 88 462 67 185 148 335 269 496 29 39 53 79 53 90 0 50 -62 60 -101 17z"/>
<path d="M3530 4152 c-20 -7 -48 -38 -118 -130 -213 -282 -322 -616 -321 -982
0 -160 11 -204 52 -208 53 -6 60 11 53 123 -3 56 -2 157 4 225 27 320 139 596
343 844 32 38 57 74 57 81 0 23 -47 55 -70 47z"/>
<path d="M5365 4131 c3 -5 -7 -11 -22 -13 -25 -3 -29 -9 -40 -58 -10 -41 -10
-67 -2 -105 19 -89 86 -205 118 -205 5 0 11 -5 13 -11 6 -18 53 -13 76 7 26
21 29 66 7 88 -8 8 -15 18 -15 23 0 5 -9 15 -20 23 -11 8 -20 20 -20 26 0 6
-7 17 -15 24 -11 9 -15 35 -15 101 0 88 0 89 -25 89 -14 0 -25 5 -25 10 0 6
-5 10 -11 10 -5 0 -8 -4 -4 -9z"/>
<path d="M9336 4094 c-22 -21 -20 -38 10 -102 102 -215 111 -554 18 -724 -29
-54 -13 -98 37 -98 30 0 46 20 73 92 39 104 56 207 56 332 0 169 -27 297 -98
457 -26 59 -63 76 -96 43z"/>
<path d="M9082 3974 c-28 -19 -28 -25 7 -186 77 -353 72 -573 -19 -851 -22
-66 -40 -125 -40 -132 0 -23 38 -48 64 -41 25 6 46 52 90 191 75 239 76 576 3
870 -8 33 -18 77 -21 97 -4 22 -16 44 -29 53 -27 19 -27 19 -55 -1z"/>
<path d="M3646 3839 c-178 -197 -248 -429 -263 -865 -6 -186 -6 -191 15 -212
27 -27 46 -28 70 -4 17 17 20 43 25 253 5 244 19 340 68 483 36 105 98 208
178 296 57 62 53 110 -10 110 -21 0 -41 -15 -83 -61z"/>
<path d="M8732 3888 c-18 -18 -15 -43 19 -148 110 -348 60 -762 -128 -1058
-49 -76 -35 -135 28 -119 47 12 169 249 212 412 68 255 63 557 -12 790 -24 75
-43 118 -56 127 -16 12 -50 9 -63 -4z"/>
<path d="M3875 3648 c-93 -96 -136 -185 -171 -354 -27 -128 -26 -578 1 -663 9
-31 52 -38 77 -14 19 19 19 27 10 209 -20 419 23 619 163 759 72 72 79 85 59
114 -28 40 -62 27 -139 -51z"/>
<path d="M4097 3423 c-21 -25 -85 -154 -103 -211 -40 -126 -55 -229 -61 -429
-5 -179 -4 -205 11 -227 19 -29 47 -33 70 -10 13 13 16 43 16 167 0 169 25
364 59 459 20 57 51 123 87 184 17 30 17 33 1 58 -20 30 -56 34 -80 9z"/>
<path d="M4293 3308 c-25 -27 -84 -121 -102 -163 -42 -96 -52 -159 -58 -366
-6 -206 -6 -207 17 -219 30 -16 69 -5 74 23 3 12 7 99 10 192 7 227 26 304 99
410 58 85 61 93 42 121 -20 30 -55 31 -82 2z"/>
<path d="M5418 3286 c-10 -7 -18 -18 -18 -25 0 -6 -5 -11 -11 -11 -7 0 -9 -11
-5 -32 4 -18 9 -51 12 -73 3 -22 9 -49 14 -60 13 -32 35 -242 35 -345 0 -52
-6 -185 -14 -295 -34 -477 -4 -775 96 -968 39 -73 169 -217 197 -217 9 0 16
-4 16 -10 0 -5 8 -10 18 -10 21 -1 52 -23 52 -39 0 -6 7 -11 15 -11 8 0 15 -4
15 -10 0 -5 14 -10 30 -10 17 0 30 -4 30 -10 0 -5 7 -10 15 -10 8 0 15 -6 15
-13 0 -9 17 -14 53 -16 28 -1 54 -6 55 -12 2 -5 24 -9 49 -9 52 0 72 18 73 63
0 32 -15 51 -50 62 -14 4 -34 15 -45 25 -11 9 -45 20 -75 23 -36 5 -86 22
-149 54 -94 48 -94 48 -130 118 -20 38 -39 71 -43 73 -5 2 -8 14 -8 26 0 12
-4 26 -9 32 -10 10 -50 124 -58 164 -2 13 -8 27 -12 30 -17 11 -26 154 -22
355 7 479 5 882 -6 950 -19 114 -33 170 -43 173 -6 2 -10 8 -10 14 0 16 -27
38 -47 38 -10 0 -26 -7 -35 -14z"/>
<path d="M4501 3231 c-24 -24 -61 -144 -67 -215 -13 -149 -21 -383 -12 -398 6
-12 20 -18 43 -18 23 0 37 6 43 18 5 9 12 96 16 192 6 174 22 295 44 337 7 12
12 36 12 53 0 24 -6 33 -26 40 -33 13 -31 13 -53 -9z"/>
<path d="M4790 3228 c-29 -32 -35 -60 -34 -163 0 -76 6 -108 38 -205 23 -70
40 -144 43 -188 5 -65 9 -75 30 -85 17 -8 29 -7 48 3 23 12 25 19 25 78 0 65
-9 105 -61 267 -32 99 -36 168 -14 222 19 45 19 58 -1 77 -22 22 -50 20 -74
-6z"/>
<path d="M4647 3192 c-44 -48 -67 -192 -67 -418 0 -127 2 -143 20 -159 25 -23
68 -13 74 18 3 12 7 101 9 197 4 139 9 191 26 253 22 81 19 108 -15 121 -24 9
-29 8 -47 -12z"/>
<path d="M5008 2949 c-15 -8 -18 -25 -18 -102 0 -116 22 -166 115 -268 37 -40
71 -83 76 -96 11 -28 31 -37 64 -29 29 7 40 40 27 76 -5 14 -43 62 -84 108
-83 91 -98 125 -98 221 0 48 -4 65 -20 81 -22 22 -37 24 -62 9z"/>
<path d="M4980 2550 c-24 -24 -24 -27 -5 -76 59 -149 126 -229 216 -254 41
-12 79 9 79 44 0 27 -29 56 -55 56 -31 0 -98 82 -130 159 -37 92 -65 111 -105
71z"/>
<path d="M4848 2459 c-19 -11 -24 -59 -8 -75 5 -5 21 -43 36 -84 46 -132 89
-193 157 -221 28 -12 32 -11 53 15 28 32 23 49 -28 88 -33 25 -54 65 -99 186
-35 94 -65 118 -111 91z"/>
<path d="M4708 2266 c-9 -21 -8 -34 8 -68 56 -130 170 -259 269 -304 112 -53
233 -12 165 56 -12 12 -33 20 -55 20 -48 0 -107 32 -161 85 -52 52 -109 140
-127 192 -11 34 -16 38 -49 41 -32 3 -40 -1 -50 -22z"/>
<path d="M4646 2074 c-9 -8 -16 -24 -16 -36 0 -57 219 -309 310 -357 59 -31
134 -51 192 -51 40 0 50 4 64 25 15 23 15 27 1 48 -13 20 -27 25 -82 30 -115
11 -223 90 -330 243 -84 119 -104 134 -139 98z"/>
<path d="M4535 1848 c-51 -28 -47 -42 36 -140 244 -286 384 -383 554 -381 113
2 237 48 243 92 7 49 -49 67 -111 34 -48 -25 -198 -24 -257 1 -73 32 -173 119
-287 249 -122 139 -148 161 -178 145z"/>
<path d="M4678 1359 c-11 -6 -18 -22 -18 -40 0 -27 6 -33 64 -58 35 -16 124
-59 198 -96 203 -100 314 -123 429 -89 61 18 98 37 152 77 44 34 49 69 12 93
-23 15 -27 15 -57 -5 -162 -104 -265 -99 -508 24 -135 68 -218 105 -239 105
-9 0 -24 -5 -33 -11z"/>
<path d="M7682 1008 c-13 -13 -16 -47 -4 -64 4 -6 17 -16 29 -23 13 -6 32 -29
43 -51 37 -73 22 -253 -34 -407 -15 -42 -13 -71 8 -85 22 -15 56 -8 70 14 27
42 57 152 71 258 16 120 7 223 -26 277 -46 74 -124 114 -157 81z"/>
<path d="M5895 971 c-6 -5 -41 -26 -80 -47 -84 -44 -183 -74 -246 -74 -63 0
-168 30 -267 75 -71 33 -86 36 -108 26 -21 -9 -25 -17 -22 -44 3 -29 10 -35
77 -69 135 -66 193 -82 316 -82 121 -1 176 14 305 82 81 42 100 59 100 88 0
41 -50 70 -75 45z"/>
<path d="M7487 874 c-4 -5 -5 -82 -1 -173 10 -252 -18 -383 -95 -455 -34 -32
-38 -51 -17 -78 22 -29 60 -22 102 19 44 45 79 119 101 217 20 89 21 347 1
421 -12 47 -15 50 -48 53 -20 2 -39 0 -43 -4z"/>
<path d="M6113 788 c-5 -7 -18 -30 -28 -52 -64 -125 -223 -172 -435 -127 -83
17 -223 68 -267 97 -27 17 -75 18 -91 2 -26 -26 -13 -57 34 -88 83 -52 286
-120 361 -120 38 0 38 -1 16 -18 -21 -17 -26 -30 -24 -65 1 -24 53 -44 146
-58 192 -29 405 55 524 205 35 44 38 58 15 80 -28 29 -60 19 -111 -35 -55 -58
-134 -108 -214 -134 -66 -22 -205 -23 -264 -2 l-39 14 96 6 c173 11 288 79
345 203 23 52 24 56 9 79 -18 27 -57 34 -73 13z"/>
<path d="M7316 777 c-16 -11 -19 -26 -17 -88 3 -140 -38 -279 -116 -393 -45
-65 -46 -70 -32 -95 24 -42 51 -38 98 16 89 101 151 286 151 451 0 83 -2 92
-22 106 -27 19 -39 20 -62 3z"/>
<path d="M6882 754 c-12 -8 -22 -26 -22 -38 0 -43 -48 -212 -75 -267 -42 -82
-112 -144 -225 -198 -54 -26 -105 -53 -114 -60 -19 -16 -21 -55 -3 -68 31 -25
51 -21 159 34 215 109 293 216 346 473 21 100 19 113 -14 129 -31 14 -25 14
-52 -5z"/>
<path d="M6561 711 c-10 -10 -22 -40 -26 -67 -15 -102 -97 -221 -196 -285 -56
-35 -155 -69 -204 -69 -53 0 -65 -8 -65 -46 0 -48 31 -59 127 -46 199 27 379
193 433 399 24 94 24 89 0 113 -25 25 -45 25 -69 1z"/>
<path d="M7098 678 c-8 -7 -23 -53 -33 -103 -36 -181 -102 -308 -183 -353 -55
-31 -69 -55 -47 -88 19 -29 43 -30 93 -5 111 57 220 267 246 474 5 39 2 51
-14 67 -23 23 -40 25 -62 8z"/>
</g>
</svg>
